<svg width="699" height="1061" viewBox="0 0 699 1061" fill="none" xmlns="http://www.w3.org/2000/svg">
<path d="M331.473 0C354.203 0.0199999 376.713 3.08962 398.013 11.3096C402.853 13.0895 407.632 14.1596 412.572 12.5098C425.582 11.5998 439.542 10.99 451.572 16.5098C451.852 16.6298 451.853 16.63 453.253 17.21C463.033 21.2799 470.222 26.97 477.572 34.5098C478.182 35.0897 478.782 35.6803 479.402 36.2803C487.042 44.2402 492.283 56.3999 492.763 67.3398C492.793 68.0397 492.832 68.7498 492.862 69.4697C492.922 70.8797 492.953 72.2902 492.973 73.7002C492.993 74.3601 493.013 75.02 493.033 75.71C493.043 76.29 493.052 76.8802 493.062 77.4902C493.872 80.67 495.182 83.2299 497.572 85.5098C500.162 86.0198 501.813 86.13 504.373 85.96C505.023 85.94 505.682 85.9204 506.362 85.9004C507.772 85.8504 509.173 85.8005 510.583 85.7305C514.233 85.5705 517.883 85.5202 521.533 85.4902C521.893 85.4802 521.893 85.4799 523.692 85.46C531.782 85.42 538.993 86.7198 546.573 89.5098C546.963 89.6496 546.964 89.6506 548.913 90.3604C559.293 94.2103 568.823 98.6899 577.573 105.51C578.103 105.92 578.633 106.32 579.173 106.74C591.663 116.46 600.833 127.75 608.573 141.51C609.063 142.36 609.543 143.22 610.043 144.1C613.173 149.98 615.293 156.09 617.033 162.51C617.453 164.06 617.893 165.59 618.343 167.13C620.473 174.79 621.053 181.89 620.953 189.82C620.943 190.41 620.943 191.01 620.933 191.62C620.633 220.61 608.733 246.5 588.173 266.9C567.843 286.14 539.923 295.13 512.333 295C501.893 294.71 491.742 292.77 481.572 290.51C481.122 291.09 480.673 291.68 480.213 292.28C472.493 302.11 464.342 311.65 454.572 319.51C453.692 320.24 452.802 320.981 451.892 321.73C438.253 332.81 422.772 341.74 406.572 348.51C405.972 348.77 405.373 349.03 404.753 349.3C385.503 357.53 365.033 360.71 344.203 360.63C343.143 360.64 342.093 360.64 341.013 360.65C340.503 360.65 340.503 360.65 337.923 360.64H335.173C332.553 360.51 330.132 360.09 327.572 359.51C327.322 360.36 327.063 361.21 326.803 362.08C325.583 365.75 323.823 368.99 321.883 372.32C321.713 372.63 321.712 372.63 320.812 374.18C317.802 379.3 314.432 383.98 310.572 388.51C309.942 389.27 309.302 390.02 308.652 390.8C303.912 396.34 303.912 396.34 301.572 397.51C301.202 402.93 302.503 407.23 304.263 412.32C304.573 413.22 304.872 414.11 305.192 415.04C332.262 492.87 332.263 492.87 356.572 516.51C368.492 511.22 375.043 494.75 379.493 483.26C385.233 467.9 388.953 452.78 390.453 436.45C393.213 407.23 402.992 378.55 421.572 355.51C422.172 354.71 422.773 353.91 423.383 353.09C446.023 323.43 480.253 303.62 516.812 296.92C521.242 296.33 525.633 296.52 530.093 296.66C531.943 296.7 533.783 296.73 535.633 296.76C538.513 296.82 541.383 296.88 544.263 296.98C563.773 297.62 563.773 297.62 572.573 289.51C590.853 278.97 613.903 276.281 634.253 281.48C657.783 288.79 676.993 302.32 688.843 324.29C699.143 344.35 700.512 365.22 694.142 386.92C691.683 394.49 688.473 402 683.383 408.17C681.603 410.47 681.073 411.21 681.263 414.01C681.283 414.56 681.313 415.1 681.333 415.67C681.573 417.51 681.573 417.51 682.073 419.6C685.183 437.599 682.413 458.91 672.573 474.51C672.273 474.99 671.983 475.47 671.673 475.96C669.413 479.56 667.033 483.05 664.573 486.51C664.133 487.15 663.683 487.78 663.223 488.44C657.763 495.46 649.523 501.66 641.843 506.08C639.333 507.66 638.043 509.18 636.323 511.57C632.373 516.84 628.073 521.7 623.573 526.51C623.173 526.95 622.763 527.39 622.343 527.85C598.723 553.269 564.953 567.62 530.573 570.51C527.573 570.61 524.583 570.61 521.573 570.57C520.803 570.57 520.023 570.56 519.223 570.56C517.343 570.55 515.463 570.53 513.573 570.51C513.413 571.04 513.253 571.57 513.093 572.12C511.153 578.29 508.572 583.94 505.642 589.7C505.393 590.17 505.392 590.17 504.183 592.58C500.313 600.19 496.252 607.69 492.142 615.16C472.993 650.01 472.993 650.01 468.453 665.26C468.363 665.55 468.363 665.551 467.923 667.021C467.023 670.21 466.473 673.19 466.293 676.5C465.923 681.72 465.582 686.37 461.862 690.34C457.462 694.04 452.642 697.08 447.772 700.11C444.863 701.97 442.212 704.04 439.572 706.26C438.732 706.97 437.883 707.67 437.013 708.4C433.653 711.31 430.333 714.26 427.053 717.26C425.383 718.77 423.703 720.26 422.013 721.72C421.163 722.46 420.323 723.19 419.453 723.95C419.073 724.27 419.072 724.27 417.192 725.88C408.462 734.28 403.122 744.31 397.642 754.95C396.833 756.48 396.032 758.02 395.232 759.56C377.402 793.809 366.353 821.3 366.323 860.26V863.72C366.323 878.39 366.623 892.96 367.953 907.57C368.013 908.27 368.073 908.971 368.142 909.69C368.812 916.86 369.732 923.941 371.102 931.021C371.552 933.41 371.933 935.79 372.283 938.2C372.393 938.92 372.513 939.63 372.623 940.37C372.843 941.83 373.053 943.28 373.253 944.74C373.373 945.45 373.482 946.16 373.602 946.89C373.692 947.51 373.783 948.14 373.873 948.78C374.893 951.31 376.243 952.16 378.573 953.51C382.353 954.18 386.183 954.03 390.013 954.01C390.583 954.01 390.583 954.01 393.463 954C406.483 953.83 419.102 951.44 431.822 948.86C433.622 948.5 435.422 948.17 437.232 947.85C446.472 946.16 455.212 943.61 464.072 940.51C464.762 940.27 465.442 940.04 466.152 939.79C475.512 936.54 484.622 932.96 493.572 928.7C494.482 928.27 495.382 927.84 496.322 927.39C509.952 920.62 509.953 920.62 513.073 914.63C513.243 913.93 513.403 913.23 513.573 912.51C520.503 912.99 526.863 914.16 533.513 916.13C534.413 916.4 535.323 916.67 536.253 916.94C548.873 920.72 561.123 924.98 572.823 931.07C573.503 931.42 574.183 931.78 574.883 932.14C579.633 934.72 583.593 937.86 587.573 941.51C590.023 940.56 592.363 939.63 594.642 938.32C597.052 937.31 598.123 937.79 600.573 938.51C601.993 967.04 594.783 993.06 575.573 1014.51C555.723 1033.48 525.782 1042.1 499.572 1047.51C498.892 1047.65 498.212 1047.79 497.513 1047.94C476.943 1052.18 456.483 1055.44 435.543 1057.1C431.343 1057.44 427.163 1057.86 422.973 1058.35C416.063 1059.12 409.163 1059.71 402.223 1060.05C401.353 1060.09 400.483 1060.14 399.593 1060.18C390.553 1060.6 381.523 1060.69 372.473 1060.71C371.603 1060.72 370.733 1060.72 369.843 1060.72C365.223 1060.74 360.613 1060.75 356.003 1060.75C352.293 1060.75 348.593 1060.77 344.883 1060.79C309.703 1061 274.793 1059.4 239.953 1054.26C239.433 1054.19 239.432 1054.19 236.812 1053.81C223.742 1051.93 210.763 1049.81 197.883 1046.89C197.293 1046.75 196.703 1046.62 196.093 1046.48C167.223 1039.84 133.312 1027.59 116.572 1001.51C110.812 991.74 106.652 981.4 103.572 970.51C103.332 969.66 103.083 968.82 102.833 967.95C100.473 958.33 100.672 947.21 102.572 937.51C105.722 937.97 107.813 938.64 110.642 940.2C113.572 941.51 113.573 941.51 115.493 940.79C117.703 939.43 119.752 937.95 121.822 936.39C140.292 923.35 162.022 918.09 183.572 912.51C184.382 912.3 185.193 912.08 186.022 911.86C186.722 911.68 187.423 911.5 188.142 911.31C188.732 911.16 189.323 911 189.923 910.84C192.513 910.32 194.942 910.38 197.572 910.51C197.782 911.64 197.993 912.78 198.203 913.95C202.273 924.43 218.522 929.68 227.982 933.91C247.562 942.39 267.813 947.45 288.763 951.26C289.393 951.38 290.033 951.49 290.683 951.61C300.223 953.25 309.843 953.73 319.513 953.82C320.523 953.85 321.543 953.88 322.583 953.91C323.563 953.92 324.533 953.93 325.543 953.94C326.413 953.95 327.283 953.96 328.183 953.98C331.473 953.33 332.562 952.16 334.572 949.51C335.532 946.73 335.533 946.73 336.163 943.46C336.283 942.85 336.392 942.25 336.522 941.62C337.932 934.09 338.923 926.49 339.883 918.89C340.193 916.41 340.522 913.93 340.852 911.45C343.332 892.42 343.843 873.35 343.973 854.19C343.993 851.16 344.023 848.14 344.083 845.12C344.353 831.69 344.423 819.47 338.383 807.18C337.593 805.54 336.873 803.89 336.183 802.21C334.893 799.12 333.563 796.06 332.203 793.01C331.963 792.47 331.722 791.94 331.482 791.39C327.812 783.11 323.983 774.95 319.803 766.91C318.573 764.5 317.363 762.08 316.163 759.66C314.973 757.25 313.763 754.85 312.543 752.44C311.953 751.26 311.363 750.07 310.783 748.89C306.683 740.55 302.153 734.16 295.573 727.51C294.963 726.87 294.353 726.23 293.723 725.57C286.933 718.47 279.913 711.83 272.173 705.771C268.793 703.101 265.472 700.36 262.142 697.63C260.783 696.53 259.433 695.43 258.083 694.33C257.773 694.08 257.772 694.08 256.223 692.82C254.573 691.51 254.573 691.51 252.123 689.87C250.573 688.51 250.572 688.51 250.112 686.74C250.142 686.07 250.173 685.39 250.203 684.7C250.213 684.29 250.213 684.29 250.303 682.25C250.603 679.26 251.082 676.34 251.572 673.39C252.642 666.81 252.802 660.29 252.822 653.63C252.832 652.66 252.842 651.69 252.852 650.68C252.812 641.76 251.203 634.92 246.883 627.13C246.713 626.81 246.712 626.81 245.803 625.15C243.063 620.21 240.062 615.57 236.692 611.03C235.332 609.19 234.003 607.32 232.673 605.46C227.413 598.12 222.092 590.83 216.642 583.63C197.273 557.95 179.512 530.84 162.572 503.51C162.012 502.6 161.442 501.69 160.862 500.75C160.312 499.85 159.762 498.95 159.192 498.03C158.692 497.21 158.193 496.39 157.673 495.55C156.573 493.51 156.572 493.51 156.572 491.51C155.962 491.53 155.352 491.55 154.723 491.57C111.833 492.84 74.6423 478.65 43.4423 449.271C29.2024 435.651 19.2925 419.47 11.4325 401.48C10.7425 399.88 10.0124 398.3 9.27238 396.72C5.73249 388.74 4.24216 380.04 2.57218 371.51C2.34222 370.39 2.1127 369.27 1.88273 368.12C-4.33725 332.61 5.19269 298.32 25.4726 269.07C40.1225 248.37 59.3723 232.45 81.5722 220.51C80.3922 214.33 78.6325 208.52 76.4726 202.6C71.0427 183.99 72.6822 158.41 79.5722 140.51C79.7022 140.16 79.703 140.16 80.373 138.41C82.213 133.66 84.2922 129.06 86.5722 124.51C86.7222 124.21 86.7231 124.21 87.4931 122.67C92.313 113.21 98.4123 105.31 105.572 97.5098C106.242 96.7698 106.912 96.0295 107.602 95.2695C127.432 74.3897 156.942 60.6199 185.572 58.5098C186.992 58.5198 188.402 58.5499 189.822 58.5898C201.472 58.8098 201.473 58.8099 205.833 55.1699C208.413 52.65 210.713 49.9001 213.053 47.1602C215.663 44.3302 218.653 42.0302 221.703 39.7002C222.003 39.4703 222.003 39.4694 223.513 38.3096C225.192 37.0297 226.882 35.7697 228.572 34.5098C229.402 33.8898 230.233 33.2601 231.083 32.6201C259.943 11.6502 293.093 0.069772 328.763 0.00976562C329.213 0.00976562 329.213 0.00999959 331.473 0ZM450.573 552.51C448.713 571.2 446.963 589.7 447.573 608.51H449.573C450.793 607.14 452.003 605.76 453.142 604.33C453.632 603.71 454.103 603.11 454.573 602.51C460.803 594.78 466.853 586.99 472.003 578.49C472.453 577.73 472.883 577 473.323 576.26C475.813 572.08 478.003 568.44 478.573 563.51C473.463 561.96 468.803 559.79 464.013 557.45C463.243 557.07 462.503 556.71 461.763 556.34C461.013 555.98 460.293 555.64 459.573 555.29C456.593 553.83 453.833 553.07 450.573 552.51ZM241.574 453.51C239.574 453.51 239.574 453.51 237.324 455.71C224.564 468.96 207.804 476.55 191.225 483.79C190.665 484.04 190.114 484.27 189.574 484.51C189.574 491.64 189.574 491.64 219.234 525.01C220.354 526.26 220.354 526.26 220.574 526.51C225.754 532.37 230.794 538.45 236.884 543.39C238.414 544.59 239.924 545.82 241.384 547.1C245.944 551.17 250.644 554.91 255.574 558.51C255.884 550.32 255.044 542.339 254.094 534.229C254.004 533.45 253.914 532.7 253.824 531.95C252.474 520.29 250.944 508.7 249.004 497.12C248.044 491.43 247.164 485.74 246.384 480.02C245.164 471.08 243.654 462.3 241.574 453.51Z" fill="#CFE074"/>
<path d="M328.763 0.01C329.213 0.01 329.213 0.01 331.473 0C354.203 0.02 376.713 3.09 398.013 11.31C402.853 13.09 407.633 14.16 412.573 12.51C425.583 11.6 439.543 10.99 451.573 16.51C451.853 16.63 451.853 16.63 453.253 17.21C463.033 21.28 470.223 26.97 477.573 34.51C478.183 35.09 478.783 35.68 479.403 36.28C487.043 44.24 492.283 56.4 492.763 67.34C492.793 68.04 492.833 68.75 492.863 69.47C492.923 70.88 492.953 72.29 492.973 73.7C492.993 74.36 493.013 75.02 493.033 75.71C493.043 76.29 493.053 76.88 493.063 77.49C493.873 80.67 495.183 83.23 497.573 85.51C500.163 86.02 501.813 86.13 504.373 85.96C505.023 85.94 505.683 85.92 506.363 85.9C507.773 85.85 509.173 85.8 510.583 85.73C514.233 85.57 517.883 85.52 521.533 85.49C521.893 85.48 521.893 85.48 523.693 85.46C531.783 85.42 538.993 86.72 546.573 89.51C546.963 89.65 546.963 89.65 548.913 90.36C559.293 94.21 568.823 98.69 577.573 105.51C578.103 105.92 578.633 106.32 579.173 106.74C591.663 116.46 600.833 127.75 608.573 141.51C609.063 142.36 609.543 143.22 610.043 144.1C613.173 149.98 615.293 156.09 617.033 162.51C617.453 164.06 617.893 165.59 618.343 167.13C620.473 174.79 621.053 181.89 620.953 189.82C620.943 190.41 620.943 191.01 620.933 191.62C620.633 220.61 608.733 246.5 588.173 266.9C567.843 286.14 539.923 295.13 512.333 295C501.893 294.71 491.743 292.77 481.573 290.51C481.123 291.09 480.673 291.68 480.213 292.28C472.493 302.11 464.343 311.65 454.573 319.51C453.693 320.24 452.803 320.98 451.893 321.73C438.253 332.81 422.773 341.74 406.573 348.51C405.973 348.77 405.373 349.03 404.753 349.3C385.503 357.53 365.033 360.71 344.203 360.63C343.143 360.64 342.093 360.64 341.013 360.65C340.503 360.65 340.503 360.65 337.923 360.64C337.013 360.64 336.113 360.64 335.173 360.64C332.553 360.51 330.133 360.09 327.573 359.51C327.323 360.36 327.063 361.21 326.803 362.08C325.583 365.75 323.823 368.99 321.883 372.32C321.713 372.63 321.713 372.63 320.813 374.18C317.803 379.31 314.423 383.97 310.573 388.51C310.043 389.17 309.513 389.84 308.973 390.52C298.643 403.02 283.703 412.79 268.653 418.65C264.603 420.69 262.933 424.17 260.763 428.01C242.653 458.36 213.543 479.3 179.423 488.19C142.243 497.22 103.223 489.89 70.4928 470.73C43.5828 454.19 23.9928 430.24 11.4328 401.48C10.7428 399.88 10.0127 398.3 9.27275 396.72C5.73275 388.74 4.24274 380.04 2.57274 371.51C2.34274 370.39 2.11273 369.27 1.88273 368.12C-4.33727 332.61 5.19273 298.32 25.4727 269.07C40.1227 248.37 59.3727 232.45 81.5727 220.51C80.3927 214.33 78.6327 208.52 76.4727 202.6C71.0427 183.99 72.6827 158.41 79.5727 140.51C79.7027 140.16 79.7027 140.16 80.3727 138.41C82.2127 133.66 84.2927 129.06 86.5727 124.51C86.7227 124.21 86.7227 124.21 87.4927 122.67C92.3127 113.21 98.4127 105.31 105.573 97.51C106.243 96.77 106.913 96.03 107.603 95.27C127.433 74.39 156.943 60.62 185.573 58.51C186.993 58.52 188.403 58.55 189.823 58.59C201.473 58.81 201.473 58.81 205.833 55.17C208.413 52.65 210.713 49.9 213.053 47.16C215.663 44.33 218.653 42.03 221.703 39.7C222.003 39.47 222.003 39.47 223.513 38.31C225.193 37.03 226.883 35.77 228.573 34.51C229.403 33.89 230.233 33.26 231.083 32.62C259.943 11.65 293.093 0.07 328.763 0.01Z" fill="#52C06F"/>
<path d="M665.009 296.349C681.199 308.339 693.829 327.279 697.289 347.339C699.959 367.599 696.289 388.039 685.579 405.509C684.849 406.389 684.129 407.269 683.379 408.169C681.609 410.469 681.069 411.209 681.259 414.009C681.289 414.559 681.309 415.099 681.339 415.669C681.579 417.509 681.579 417.509 682.069 419.599C685.189 437.599 682.409 458.909 672.579 474.509C672.429 474.749 672.429 474.749 671.669 475.959C669.419 479.559 667.039 483.049 664.579 486.509C664.129 487.149 663.679 487.779 663.219 488.439C657.769 495.459 649.519 501.659 641.849 506.079C639.339 507.659 638.049 509.179 636.329 511.569C632.379 516.839 628.079 521.699 623.579 526.509C623.369 526.729 623.369 526.729 622.339 527.849C604.989 546.519 582.889 558.369 558.579 565.509C557.849 565.729 557.109 565.959 556.359 566.189C525.499 575.299 487.909 571.289 459.579 556.509C458.899 556.159 458.219 555.809 457.519 555.449C448.809 550.909 440.969 546.019 433.579 539.509C432.749 538.809 431.919 538.119 431.059 537.399C407.849 517.379 393.359 487.019 390.729 456.589C389.609 441.139 391.249 426.609 394.579 411.509C394.739 410.749 394.909 409.989 395.079 409.209C399.449 390.229 408.939 372.029 420.579 356.509C420.759 356.269 420.759 356.269 421.679 355.029C444.689 324.479 479.269 303.799 516.809 296.919C521.249 296.329 525.639 296.519 530.099 296.659C531.939 296.699 533.789 296.729 535.629 296.759C538.509 296.819 541.389 296.889 544.259 296.979C563.779 297.619 563.779 297.619 572.579 289.509C601.969 272.559 638.129 277.099 665.009 296.349Z" fill="#53C170"/>
<path d="M197.574 910.51C197.734 911.04 197.894 911.57 198.054 912.12C198.174 912.47 198.174 912.47 198.764 914.26C198.984 914.96 199.204 915.65 199.434 916.37C200.574 918.51 200.574 918.51 203.114 920.27C206.594 923.44 206.444 926.11 206.694 930.63C206.834 932.17 206.974 933.71 207.124 935.24C207.194 935.98 207.264 936.72 207.334 937.48C208.414 946.78 212.504 957.23 219.574 963.51C219.574 964.17 219.574 964.83 219.574 965.51C219.894 965.5 219.894 965.5 221.534 965.48C228.804 965.42 235.964 965.81 243.194 966.39C244.384 966.48 245.574 966.57 246.754 966.66C252.484 967.09 258.214 967.56 263.944 968.05C290.814 970.35 317.614 970.68 344.574 970.64C348.994 970.63 353.414 970.64 357.824 970.64C374.314 970.66 390.784 970.62 407.264 970.06C407.854 970.05 408.444 970.03 409.054 970.01C419.604 969.65 430.094 968.86 440.604 967.97C445.174 967.6 449.744 967.34 454.324 967.17C458.414 967.01 462.494 966.77 466.574 966.51C467.554 966.45 468.544 966.4 469.554 966.34C487.194 965.19 487.194 965.19 492.404 961.51C494.314 958.91 495.434 956.53 496.574 953.51C497.034 952.63 497.484 951.76 497.954 950.85C501.424 943.79 502.534 936.8 503.234 929.01C503.904 923.16 503.904 923.16 505.944 921.18C507.444 920.22 509.004 919.36 510.574 918.51C511.814 916.81 511.814 916.81 512.454 915.26C512.824 914.35 513.194 913.44 513.574 912.51C520.494 912.99 526.864 914.16 533.514 916.13C533.964 916.27 533.964 916.27 536.254 916.94C548.874 920.72 561.124 924.98 572.824 931.07C573.164 931.25 573.164 931.25 574.884 932.14C579.634 934.72 583.594 937.86 587.574 941.51C590.024 940.56 592.354 939.63 594.634 938.32C597.054 937.31 598.124 937.79 600.574 938.51C601.994 967.04 594.774 993.06 575.574 1014.51C555.724 1033.48 525.784 1042.1 499.574 1047.51C498.894 1047.65 498.214 1047.79 497.514 1047.94C476.944 1052.18 456.474 1055.44 435.544 1057.1C431.344 1057.44 427.154 1057.86 422.974 1058.35C416.064 1059.12 409.164 1059.71 402.214 1060.05C401.354 1060.09 400.484 1060.14 399.594 1060.18C390.554 1060.6 381.514 1060.69 372.464 1060.71C371.604 1060.72 370.734 1060.72 369.834 1060.72C365.224 1060.74 360.614 1060.75 356.004 1060.75C352.294 1060.75 348.594 1060.77 344.884 1060.79C309.704 1061 274.784 1059.4 239.954 1054.26C238.914 1054.11 237.874 1053.96 236.804 1053.81C223.744 1051.93 210.764 1049.81 197.884 1046.89C197.294 1046.75 196.704 1046.62 196.094 1046.48C167.224 1039.84 133.314 1027.59 116.574 1001.51C110.814 991.74 106.654 981.4 103.574 970.51C103.324 969.66 103.084 968.82 102.824 967.95C100.474 958.33 100.664 947.21 102.574 937.51C105.724 937.97 107.814 938.64 110.634 940.2C113.574 941.51 113.574 941.51 115.494 940.79C117.704 939.43 119.744 937.95 121.824 936.39C140.294 923.35 162.024 918.09 183.574 912.51C184.384 912.3 185.184 912.08 186.014 911.86C186.374 911.77 186.374 911.77 188.144 911.31C188.734 911.16 189.324 911 189.924 910.84C192.514 910.32 194.944 910.38 197.574 910.51Z" fill="#835F4F"/>
<path d="M255.572 207.51C256.542 207.73 257.512 207.94 258.512 208.17C273.822 211.91 287.512 219.48 299.572 229.51C300.362 230.15 301.152 230.8 301.972 231.46C317.822 244.97 328.962 263.5 334.572 283.51C334.652 283.79 334.652 283.79 335.062 285.23C339.772 302.69 339.702 324.19 334.572 341.51C334.382 342.19 334.192 342.86 334.002 343.56C329.372 359.99 322.062 375.76 310.572 388.51C310.302 388.85 310.302 388.85 308.912 390.56C299.092 402.51 285.482 411.07 271.572 417.51C270.952 417.83 270.322 418.16 269.682 418.49C259.102 423.74 246.312 426.14 234.572 426.51C233.882 426.54 233.192 426.57 232.482 426.6C214.982 427.34 198.462 425.14 182.572 417.51C181.092 416.91 179.612 416.3 178.132 415.7C167.562 410.92 158.202 404.19 149.572 396.51C148.742 395.77 147.912 395.04 147.052 394.28C131.742 379.88 121.902 360.67 116.572 340.51C116.362 339.76 116.142 339.02 115.932 338.25C108.412 310.72 116.742 282.57 130.262 258.51C137.442 246.64 146.472 236.75 157.572 228.51C158.362 227.91 159.152 227.31 159.962 226.69C170.112 219.21 181.522 213.23 193.572 209.51C194.432 209.24 195.282 208.96 196.162 208.68C215.462 202.92 236.072 202.83 255.572 207.51Z" fill="#78E190"/>
<path d="M88.0437 656.003C87.6737 656.003 87.6737 656.003 85.7837 656.033C78.0437 656.343 72.7837 658.943 67.4937 664.633C61.3537 672.353 60.3137 679.983 61.3537 689.623C64.1237 702.223 72.2937 713.833 82.7037 721.313C93.6937 728.283 103.534 730.583 116.354 729.623C117.344 729.293 118.334 728.973 119.354 728.623C119.624 729.213 119.884 729.793 120.154 730.393C121.414 732.743 122.824 734.463 124.604 736.443C126.894 738.983 129.124 741.553 131.294 744.193C150.304 766.233 181.154 779.813 209.784 782.513C212.204 782.623 214.594 782.643 217.014 782.633C217.424 782.633 217.424 782.633 219.474 782.633C220.094 782.633 220.714 782.633 221.354 782.623C221.114 783.673 220.864 784.723 220.614 785.793C214.374 812.313 208.554 838.723 204.604 865.693C204.554 866.053 204.554 866.053 204.284 867.883C202.984 876.673 202.064 885.383 201.684 894.273C201.454 899.433 201.454 899.433 200.354 901.623C200.044 904.373 200.034 907.123 199.984 909.883C199.964 910.253 199.964 910.253 199.864 912.153C199.804 915.933 199.994 918.753 202.284 921.843C205.854 925.513 210.324 927.713 214.854 930.003C215.784 930.473 216.704 930.953 217.654 931.433C226.494 935.873 235.564 939.483 244.894 942.753C247.204 943.573 249.504 944.423 251.794 945.273C263.404 949.483 275.274 951.913 287.404 954.093C290.034 954.573 292.644 955.083 295.264 955.603C304.564 957.373 313.784 957.953 323.234 958.063C324.354 958.083 325.484 958.113 326.644 958.133C335.464 958.113 335.464 958.113 338.504 956.103C341.044 952.703 341.514 949.713 342.044 945.563C342.254 944.133 342.464 942.713 342.684 941.283C342.734 940.903 342.734 940.903 342.994 939.003C343.374 936.493 343.854 934.003 344.334 931.503C345.604 924.603 346.354 917.673 346.984 910.693C347.044 909.973 347.114 909.243 347.184 908.503C348.494 893.473 348.624 878.453 348.604 863.383C348.604 862.263 348.604 861.143 348.604 859.993C348.594 852.863 348.514 845.753 348.354 838.623C348.344 838.243 348.344 838.243 348.304 836.273C348.094 827.973 347.004 820.913 343.544 813.313C343.144 812.393 342.754 811.483 342.344 810.533C341.034 807.553 339.704 804.593 338.354 801.623C337.904 800.603 337.454 799.583 336.984 798.533C331.364 785.903 325.384 773.483 319.044 761.193C318.764 760.633 318.474 760.083 318.184 759.513C306.134 736.083 289.304 719.273 268.354 703.623C267.634 703.083 266.914 702.533 266.164 701.973C263.894 700.253 261.594 698.563 259.294 696.883C258.584 696.343 257.864 695.803 257.124 695.243C252.034 691.593 252.034 691.593 248.364 691.803C247.704 692.073 247.034 692.343 246.354 692.623C245.094 698.923 245.094 698.923 246.274 702.113C247.834 706.633 248.154 711.323 248.644 716.053C248.704 716.553 248.704 716.553 248.974 719.063C249.314 722.203 249.644 725.353 249.984 728.503C250.214 730.643 250.444 732.783 250.674 734.923C251.244 740.163 251.804 745.393 252.354 750.623C257.504 751.793 262.654 752.903 267.854 753.843C268.984 754.053 270.124 754.263 271.294 754.483C273.054 754.813 274.824 755.133 276.594 755.453C278.324 755.763 280.054 756.083 281.794 756.413C282.814 756.593 283.834 756.783 284.884 756.973C287.354 757.623 287.354 757.623 289.354 759.623C289.334 764.953 285.604 768.703 282.484 772.693C281.934 773.393 281.394 774.103 280.834 774.833C279.824 776.153 278.804 777.473 277.784 778.783C276.284 780.713 274.814 782.673 273.354 784.623C274.684 787.703 275.914 789.333 278.674 791.223C279.344 791.693 280.014 792.153 280.714 792.633C281.444 793.133 282.164 793.623 282.924 794.123C284.474 795.203 286.024 796.273 287.584 797.343C288.374 797.893 289.174 798.433 289.994 799.003C293.634 801.513 297.244 804.073 300.854 806.623C302.264 807.623 303.664 808.614 305.074 809.604C305.774 810.104 306.474 810.594 307.194 811.104C309.434 812.684 311.674 814.263 313.924 815.843C314.674 816.373 315.424 816.903 316.204 817.443C317.624 818.443 319.054 819.443 320.474 820.443C325.174 823.753 329.784 827.163 334.354 830.623C334.024 831.943 333.694 833.263 333.354 834.623C330.724 835.103 328.904 834.943 326.564 833.623C324.414 832.113 322.314 830.543 320.234 828.943C318.614 827.733 317.004 826.533 315.384 825.343C314.554 824.723 313.724 824.104 312.864 823.464C308.914 820.574 304.854 817.813 300.794 815.063C275.724 798.013 275.724 798.013 265.354 789.623C265.574 782.653 268.774 778.613 272.924 773.193C273.534 772.363 274.154 771.533 274.784 770.683C276.294 768.653 277.824 766.643 279.354 764.623C276.584 762.343 273.744 761.983 270.264 761.373C269.674 761.273 269.084 761.163 268.484 761.053C266.604 760.713 264.734 760.393 262.854 760.063C260.984 759.733 259.104 759.403 257.234 759.063C255.534 758.763 253.834 758.463 252.124 758.173C249.354 757.623 249.354 757.623 246.354 756.623C246.284 756.013 246.204 755.393 246.124 754.763C244.364 740.353 242.474 725.983 240.354 711.623C237.364 713.053 235.334 714.483 232.984 716.813C221.344 727.233 207.514 730.493 192.304 729.763C178.834 728.803 166.444 721.793 156.354 713.123C155.834 712.703 155.314 712.273 154.774 711.833C153.294 710.483 152.274 709.413 151.354 707.623C151.244 704.843 151.674 702.323 152.354 699.623C149.654 700.633 147.254 701.683 144.794 703.193C140.834 705.523 137.484 705.753 132.934 705.723C131.914 705.723 130.884 705.723 129.834 705.713C129.294 705.713 129.294 705.713 126.604 705.693C125.524 705.683 124.444 705.683 123.334 705.673C120.674 705.663 118.014 705.653 115.354 705.623C115.514 704.833 115.674 704.033 115.834 703.203C117.544 692.843 118.334 679.653 112.354 670.623C105.754 661.893 99.4037 655.833 88.0437 656.003Z" fill="#FAF8F4"/>
<path d="M623.691 651.996C624.061 651.996 624.061 651.996 625.951 652.026C633.691 652.336 638.951 654.936 644.241 660.626C650.381 668.346 651.421 675.976 650.381 685.616C647.611 698.216 639.441 709.826 629.031 717.306C618.041 724.276 608.201 726.576 595.381 725.616C594.391 725.286 593.401 724.966 592.381 724.616C592.111 725.206 591.851 725.786 591.581 726.386C590.321 728.736 588.911 730.456 587.131 732.436C584.841 734.976 582.611 737.546 580.441 740.186C561.431 762.226 530.581 775.806 501.951 778.506C499.531 778.616 497.141 778.636 494.721 778.626C494.311 778.626 494.311 778.626 492.261 778.626C491.641 778.626 491.021 778.626 490.381 778.616C490.621 779.666 490.871 780.716 491.121 781.786C497.361 808.306 503.181 834.716 507.131 861.686C507.181 862.046 507.181 862.046 507.451 863.876C508.751 872.666 509.671 881.376 510.051 890.266C510.281 895.426 510.281 895.426 511.381 897.616C511.691 900.366 511.701 903.116 511.751 905.876C511.771 906.246 511.771 906.246 511.871 908.146C511.931 911.926 511.741 914.746 509.451 917.836C505.881 921.506 501.411 923.706 496.881 925.996C495.951 926.466 495.031 926.946 494.081 927.426C485.241 931.866 476.171 935.476 466.841 938.746C464.531 939.566 462.231 940.416 459.941 941.266C448.331 945.476 436.461 947.906 424.331 950.086C421.701 950.566 419.091 951.076 416.471 951.596C407.171 953.366 397.951 953.946 388.501 954.056C387.381 954.076 386.251 954.106 385.091 954.126C376.271 954.106 376.271 954.106 373.231 952.096C370.691 948.696 370.221 945.706 369.691 941.556C369.481 940.126 369.271 938.706 369.051 937.276C369.001 936.896 369.001 936.896 368.741 934.996C368.361 932.486 367.881 929.996 367.401 927.496C366.131 920.596 365.381 913.666 364.751 906.686C364.691 905.966 364.621 905.236 364.551 904.496C363.241 889.466 363.111 874.446 363.131 859.376C363.131 858.256 363.131 857.136 363.131 855.986C363.141 848.856 363.221 841.746 363.381 834.616C363.391 834.236 363.391 834.236 363.431 832.266C363.641 823.966 364.731 816.906 368.191 809.306C368.591 808.386 368.981 807.476 369.391 806.526C370.701 803.546 372.031 800.586 373.381 797.616C373.831 796.596 374.281 795.576 374.751 794.526C380.371 781.896 386.351 769.476 392.691 757.186C392.971 756.626 393.261 756.076 393.551 755.506C405.601 732.076 422.431 715.266 443.381 699.616C444.101 699.076 444.821 698.526 445.571 697.966C447.841 696.246 450.141 694.556 452.441 692.876C453.151 692.336 453.871 691.796 454.611 691.236C459.701 687.586 459.701 687.586 463.371 687.796C464.031 688.066 464.701 688.336 465.381 688.616C466.641 694.916 466.641 694.916 465.461 698.106C463.901 702.626 463.581 707.316 463.091 712.046C463.031 712.546 463.031 712.546 462.761 715.056C462.421 718.196 462.091 721.346 461.751 724.496C461.521 726.636 461.291 728.776 461.061 730.916C460.491 736.156 459.931 741.386 459.381 746.616C454.231 747.786 449.081 748.896 443.881 749.836C442.751 750.046 441.611 750.256 440.441 750.476C438.681 750.806 436.911 751.126 435.141 751.446C433.411 751.756 431.681 752.076 429.941 752.406C428.921 752.586 427.901 752.776 426.851 752.966C424.381 753.616 424.381 753.616 422.381 755.616C422.401 760.946 426.131 764.696 429.251 768.686C429.801 769.386 430.341 770.096 430.901 770.826C431.911 772.146 432.931 773.466 433.951 774.776C435.451 776.706 436.921 778.666 438.381 780.616C437.051 783.696 435.821 785.326 433.061 787.216C432.391 787.686 431.721 788.146 431.021 788.626C430.291 789.126 429.571 789.616 428.811 790.116C427.261 791.196 425.711 792.266 424.151 793.336C423.361 793.886 422.561 794.426 421.741 794.996C418.101 797.506 414.491 800.066 410.881 802.616C409.471 803.616 408.071 804.606 406.661 805.596C405.961 806.096 405.261 806.586 404.541 807.096C402.301 808.676 400.061 810.256 397.811 811.836C397.061 812.366 396.311 812.896 395.531 813.436C394.111 814.436 392.681 815.436 391.261 816.436C386.561 819.746 381.951 823.156 377.381 826.616C377.711 827.936 378.041 829.256 378.381 830.616C381.011 831.096 382.831 830.936 385.171 829.616C387.321 828.106 389.421 826.536 391.501 824.936C393.121 823.726 394.731 822.526 396.351 821.336C397.181 820.716 398.011 820.096 398.871 819.456C402.821 816.566 406.881 813.806 410.941 811.056C436.011 794.006 436.011 794.006 446.381 785.616C446.161 778.646 442.961 774.606 438.811 769.186C438.201 768.356 437.581 767.526 436.951 766.676C435.441 764.646 433.911 762.636 432.381 760.616C435.151 758.336 437.991 757.976 441.471 757.366C442.061 757.266 442.651 757.156 443.251 757.046C445.131 756.706 447.001 756.386 448.881 756.056C450.751 755.726 452.631 755.396 454.501 755.056C456.201 754.756 457.901 754.456 459.611 754.166C462.381 753.616 462.381 753.616 465.381 752.616C465.451 752.006 465.531 751.386 465.611 750.756C467.371 736.346 469.261 721.976 471.381 707.616C474.371 709.046 476.401 710.476 478.751 712.806C490.391 723.226 504.221 726.486 519.431 725.756C532.901 724.796 545.291 717.786 555.381 709.116C555.901 708.696 556.421 708.266 556.961 707.826C558.441 706.476 559.461 705.406 560.381 703.616C560.491 700.836 560.061 698.316 559.381 695.616C562.081 696.626 564.481 697.676 566.941 699.186C570.901 701.516 574.251 701.746 578.801 701.716C579.821 701.716 580.851 701.716 581.901 701.706C582.441 701.706 582.441 701.706 585.131 701.686C586.211 701.676 587.291 701.676 588.401 701.666C591.061 701.656 593.721 701.646 596.381 701.616C596.221 700.826 596.061 700.026 595.901 699.196C594.191 688.836 593.401 675.646 599.381 666.616C605.981 657.886 612.331 651.826 623.691 651.996Z" fill="#FAF8F4"/>
<path d="M633.574 363.51C634.624 363.87 635.674 364.23 636.754 364.61C654.744 371.36 668.294 385.5 676.574 402.51C677.974 405.72 678.834 408 678.574 411.51C679.234 411.51 679.894 411.51 680.574 411.51C685.744 430.79 683.894 454.68 674.024 472.22C673.544 472.97 673.064 473.73 672.574 474.51C672.424 474.75 672.424 474.75 671.674 475.96C669.414 479.56 667.034 483.05 664.574 486.51C664.124 487.15 663.684 487.78 663.214 488.44C657.154 496.24 648.014 502.52 639.574 507.51C638.914 508.17 638.254 508.83 637.574 509.51C635.914 509.87 634.244 510.2 632.574 510.51C629.884 511.44 627.244 512.46 624.584 513.47C605.674 519.98 584.094 517.92 566.194 509.26C560.044 506.08 554.704 502.17 549.574 497.51C548.794 496.81 548.014 496.11 547.204 495.39C533.374 482.33 525.204 463.81 524.304 444.87C523.664 422.06 530.274 402.4 545.734 385.44C568.284 361.73 602.334 351.81 633.574 363.51Z" fill="#79E291"/>
<path d="M499.573 85.5101C533.163 84.6501 533.163 84.6501 546.573 89.5101C547.343 89.7901 548.123 90.0701 548.913 90.3601C559.293 94.2101 568.823 98.6901 577.573 105.51C578.103 105.92 578.633 106.32 579.173 106.74C591.663 116.46 600.833 127.75 608.573 141.51C609.053 142.36 609.543 143.22 610.033 144.1C613.173 149.98 615.293 156.09 617.033 162.51C617.453 164.06 617.893 165.59 618.343 167.13C620.473 174.79 621.043 181.89 620.953 189.82C620.943 190.12 620.943 190.12 620.933 191.62C620.623 220.61 608.723 246.5 588.173 266.9C567.793 286.19 539.843 295.13 512.193 295C502.423 294.73 493.033 292.87 483.573 290.51C483.323 286.13 485.173 283.64 487.573 280.13C488.403 278.87 489.243 277.61 490.073 276.35C490.283 276.03 490.283 276.03 491.343 274.4C511.203 243.77 520.823 207.76 520.693 171.39C520.703 170.27 520.703 169.15 520.713 168.01C520.693 157.67 519.483 148.36 517.013 138.33C516.563 136.45 516.123 134.57 515.693 132.68C512.543 119.1 508.143 106.42 501.023 94.3801C498.493 89.9601 498.493 89.9601 498.983 87.3201C499.173 86.7201 499.373 86.1201 499.573 85.5101Z" fill="#3AA95C"/>
<path d="M451.573 16.51C452.133 16.74 452.683 16.97 453.253 17.21C463.033 21.28 470.223 26.97 477.573 34.51C478.173 35.09 478.783 35.68 479.403 36.28C489.263 46.55 492.613 60.26 493.233 73.96C493.263 74.64 493.293 75.31 493.323 76C493.353 76.6 493.373 77.21 493.403 77.83C493.573 79.51 493.573 79.51 494.573 82.51C494.233 84.33 494.233 84.33 493.573 86.35C493.323 87.1 493.083 87.85 492.833 88.62C492.563 89.41 492.293 90.2 492.013 91.01C491.733 91.82 491.453 92.63 491.173 93.47C484.553 112.27 473.023 125.75 455.383 134.89C438.703 142.74 418.323 144.8 400.673 138.76C380.353 130.54 368.313 117.95 359.473 98.03C354.733 84.75 355.953 66.29 361.573 53.51C361.753 53.07 361.753 53.07 362.673 50.86C370.033 34.65 384.633 21.88 401.193 15.63C402.323 15.26 403.453 14.89 404.573 14.51C405.233 14.18 405.893 13.85 406.573 13.51C420.593 10.73 438.433 10.49 451.573 16.51Z" fill="#78E190"/>
<path d="M191.136 59.4482C192.046 59.4482 192.966 59.4582 193.906 59.4582C196.126 59.4782 198.346 59.4882 200.576 59.5082C198.746 62.7782 196.736 65.5982 194.266 68.3982C164.016 102.748 149.906 150.088 152.686 195.268C152.946 199.018 153.246 202.768 153.576 206.508C153.206 206.528 153.206 206.528 151.316 206.628C130.926 207.768 111.596 209.518 92.5757 217.508C89.5857 218.568 86.5857 219.548 83.5757 220.508C72.8857 198.008 70.0257 168.648 78.0257 144.628C78.5357 143.248 79.0457 141.878 79.5757 140.508C79.8357 139.818 80.0957 139.118 80.3657 138.408C82.2057 133.658 84.2957 129.068 86.5757 124.508C86.7257 124.208 86.7257 124.208 87.4857 122.668C92.3157 113.208 98.4057 105.308 105.576 97.5082C106.246 96.7682 106.906 96.0382 107.596 95.2682C129.036 72.6982 160.156 59.1482 191.136 59.4482Z" fill="#3AA85B"/>
<path d="M197.575 910.51C197.735 911.04 197.895 911.57 198.055 912.12C198.175 912.47 198.175 912.47 198.765 914.26C198.985 914.96 199.205 915.65 199.435 916.37C200.575 918.51 200.575 918.51 203.115 920.27C206.595 923.44 206.445 926.11 206.695 930.63C206.835 932.17 206.975 933.71 207.125 935.24C207.195 935.98 207.265 936.72 207.335 937.48C208.415 946.78 212.505 957.23 219.575 963.51C219.575 964.17 219.575 964.83 219.575 965.51C219.895 965.5 219.895 965.5 221.535 965.48C228.805 965.42 235.965 965.81 243.195 966.39C244.385 966.48 245.575 966.57 246.755 966.66C252.485 967.09 258.215 967.56 263.945 968.05C290.815 970.35 317.615 970.68 344.575 970.64C348.995 970.63 353.415 970.64 357.825 970.64C374.315 970.66 390.785 970.62 407.265 970.06C407.855 970.05 408.445 970.03 409.055 970.01C419.605 969.65 430.095 968.86 440.605 967.97C445.175 967.6 449.745 967.34 454.325 967.17C458.415 967.01 462.495 966.77 466.575 966.51C467.555 966.45 468.545 966.4 469.555 966.34C487.195 965.19 487.195 965.19 492.405 961.51C494.315 958.91 495.435 956.53 496.575 953.51C497.035 952.63 497.485 951.76 497.955 950.85C501.425 943.79 502.535 936.8 503.235 929.01C503.905 923.16 503.905 923.16 505.945 921.18C507.445 920.22 509.005 919.36 510.575 918.51C511.815 916.81 511.815 916.81 512.455 915.26C512.825 914.35 513.195 913.44 513.575 912.51C520.495 912.99 526.865 914.16 533.515 916.13C533.965 916.27 533.965 916.27 536.255 916.94C548.875 920.72 561.125 924.98 572.825 931.07C573.165 931.25 573.165 931.25 574.885 932.14C579.635 934.72 583.595 937.86 587.575 941.51C590.025 940.56 592.355 939.63 594.635 938.32C597.025 937.32 598.175 937.65 600.575 938.51C601.135 941.13 601.135 941.13 600.575 944.51C594.465 950.81 584.655 953.61 576.575 956.51C575.905 956.76 575.245 957 574.555 957.26C560.365 962.46 545.675 964.95 530.845 967.55C527.465 968.15 524.115 968.81 520.775 969.59C515.875 970.72 510.935 971.38 505.955 972.01C504.965 972.14 503.985 972.26 502.965 972.4C494.675 973.44 486.365 974.21 478.025 974.86C477.125 974.94 476.215 975.01 475.285 975.08C474.495 975.14 473.705 975.2 472.885 975.26C470.575 975.51 470.575 975.51 468.365 975.99C464.365 976.74 460.355 976.96 456.295 977.23C455.835 977.26 455.835 977.26 453.505 977.42C451.545 977.55 449.585 977.68 447.615 977.81C444.735 978 441.845 978.2 438.965 978.4C409.845 980.38 380.755 980.7 351.575 980.7C347.635 980.7 343.695 980.7 339.745 980.72C319.015 980.79 298.345 980.65 277.635 979.56C276.805 979.52 275.985 979.47 275.135 979.43C272.815 979.31 270.495 979.17 268.175 979.04C267.495 979 266.825 978.96 266.135 978.92C263.015 978.73 259.935 978.45 256.845 977.99C254.415 977.63 252.135 977.37 249.695 977.31C235.455 976.79 221.385 975.11 207.265 973.32C206.015 973.17 204.765 973.01 203.515 972.85C125.405 962.98 125.405 962.98 103.575 945.51C103.245 950.46 102.915 955.41 102.575 960.51C102.245 960.51 101.915 960.51 101.575 960.51C101.545 957.8 101.525 955.09 101.515 952.39C101.505 951.62 101.495 950.86 101.485 950.08C101.465 945.76 101.715 941.75 102.575 937.51C105.725 937.97 107.815 938.64 110.635 940.2C113.575 941.51 113.575 941.51 115.495 940.79C117.705 939.43 119.745 937.95 121.825 936.39C140.295 923.35 162.025 918.09 183.575 912.51C184.385 912.3 185.185 912.08 186.015 911.86C186.375 911.77 186.375 911.77 188.145 911.31C188.735 911.16 189.325 911 189.925 910.84C192.515 910.32 194.945 910.38 197.575 910.51Z" fill="#B78D75"/>
<path d="M89.0746 655.447C94.2646 658.547 98.0646 662.637 101.575 667.507C101.805 667.827 101.805 667.827 102.955 669.427C108.005 678.277 106.505 691.807 104.575 701.507C108.985 703.187 112.955 703.927 117.695 703.947C118.035 703.947 118.035 703.947 119.745 703.957C128.285 703.777 136.395 701.357 144.535 698.967C146.615 698.497 148.455 698.427 150.575 698.507C150.645 698.997 150.645 698.997 151.015 701.447C153.825 710.807 163.495 716.157 171.575 720.537C183.685 726.817 197.525 729.167 210.905 725.447C222.475 721.657 231.125 715.177 239.575 706.507C240.235 706.507 240.895 706.507 241.575 706.507C241.285 714.857 239.835 721.807 236.575 729.507C235.915 729.507 235.255 729.507 234.575 729.507C234.485 730.047 234.405 730.577 234.315 731.137C233.315 736.697 231.865 742.007 230.135 747.387C228.005 754.037 226.195 760.707 224.575 767.507C224.015 769.757 223.455 772.007 222.885 774.257C222.635 775.267 222.385 776.267 222.125 777.307C222.035 777.667 222.035 777.667 221.575 779.507C193.125 781.667 163.645 769.467 142.035 751.537C126.915 738.537 126.915 738.537 123.295 732.317C121.885 729.927 120.735 728.257 118.575 726.507C114.185 725.617 109.895 725.927 105.455 726.257C89.3946 727.287 76.8346 723.077 64.5746 712.507C55.8346 702.697 49.7646 691.887 50.1246 678.407C50.6646 669.337 54.0446 663.727 60.5746 657.507C61.0546 657.047 61.5346 656.587 62.0246 656.117C68.9546 650.947 81.6046 652.107 89.0746 655.447Z" fill="#D0E077"/>
<path d="M625.887 652.884C626.257 652.884 626.257 652.884 628.147 652.914C635.887 653.224 641.147 655.824 646.437 661.514C652.577 669.234 653.617 676.864 652.577 686.504C649.807 699.104 641.637 710.714 631.227 718.194C620.237 725.164 610.397 727.464 597.577 726.504C597.077 726.344 597.077 726.344 594.577 725.504C594.307 726.094 594.047 726.674 593.777 727.274C592.517 729.624 591.107 731.344 589.327 733.324C587.037 735.864 584.807 738.434 582.637 741.074C563.817 762.884 532.627 777.124 504.127 779.374C501.507 779.514 498.907 779.544 496.277 779.524C495.397 779.524 494.507 779.524 493.597 779.524C492.927 779.514 492.257 779.514 491.577 779.504C491.417 778.844 491.267 778.174 491.107 777.484C488.287 765.424 485.407 753.434 481.797 741.584C480.187 736.274 478.737 730.924 477.277 725.574C476.407 722.404 475.517 719.274 474.437 716.174C473.557 713.454 473.407 711.344 473.577 708.504C476.587 709.854 478.607 711.384 480.947 713.694C492.587 724.114 506.417 727.374 521.627 726.644C535.097 725.684 547.487 718.674 557.577 710.004C558.097 709.584 558.617 709.154 559.157 708.714C560.637 707.364 561.657 706.294 562.577 704.504C562.687 701.724 562.257 699.204 561.577 696.504C564.277 697.514 566.677 698.564 569.137 700.074C573.097 702.404 576.447 702.634 580.997 702.604C582.017 702.604 583.047 702.604 584.097 702.594C584.637 702.594 584.637 702.594 587.327 702.574C588.407 702.564 589.487 702.564 590.597 702.554C593.257 702.544 595.917 702.534 598.577 702.504C598.417 701.714 598.257 700.914 598.097 700.084C596.387 689.724 595.597 676.534 601.577 667.504C608.177 658.774 614.527 652.714 625.887 652.884Z" fill="#D0E075"/>
<path d="M668.008 298.6C683.218 310.63 695.028 330.17 697.578 349.51C699.598 370.89 695.588 393.44 681.738 410.41C680.578 411.51 680.578 411.51 678.578 411.51C678.368 410.86 678.158 410.2 677.948 409.53C674.038 397.95 669.078 389.11 659.808 381.25C656.998 378.38 656.408 374.93 655.398 371.13C654.058 366.86 651.778 363.27 649.388 359.51C648.898 358.73 648.408 357.94 647.898 357.14C644.158 351.24 640.208 345.76 635.578 340.51C635.178 340.04 634.778 339.58 634.378 339.1C617.298 319.05 594.848 307.02 569.578 300.51C568.698 300.28 567.818 300.06 566.918 299.82C565.138 299.37 563.358 298.94 561.578 298.51C568.868 290.25 578.608 286.29 588.888 283.05C590.398 282.57 591.898 282.05 593.398 281.53C619.258 273.64 647.228 282.8 668.008 298.6Z" fill="#3DAA5E"/>
<path d="M249.575 686.51C250.445 687.27 251.305 688.04 252.195 688.82C255.175 691.38 258.215 693.81 261.315 696.2C268.935 702.12 276.375 708.19 283.535 714.66C284.945 715.94 286.355 717.2 287.785 718.46C301.095 730.32 308.925 742.7 316.575 758.51C317.325 759.99 318.075 761.46 318.835 762.93C320.805 766.76 322.695 770.63 324.575 774.51C324.935 775.24 325.285 775.97 325.655 776.72C329.965 785.6 334.105 794.54 337.955 803.63C338.115 804.01 338.115 804.01 338.925 805.93C339.835 808.11 340.715 810.31 341.575 812.51C341.865 813.25 342.155 813.99 342.465 814.75C344.455 820.15 344.955 824.84 344.765 830.57C344.755 830.96 344.755 830.96 344.725 832.91C344.685 834.77 344.635 836.64 344.575 838.51C341.235 837.43 338.475 836.44 335.575 834.51C334.675 834.24 333.775 833.98 332.855 833.71C329.305 832.41 326.615 830.63 323.635 828.39C322.405 827.48 321.165 826.58 319.935 825.67C319.585 825.42 319.585 825.42 317.855 824.16C313.915 821.31 309.915 818.55 305.925 815.78C303.455 814.07 300.975 812.35 298.505 810.63C298.015 810.29 297.515 809.95 297.015 809.59C291.855 806.01 286.715 802.42 281.575 798.82C280.765 798.26 279.965 797.7 279.135 797.11C277.635 796.07 276.145 795.01 274.655 793.95C273.285 793 271.895 792.1 270.465 791.25C266.985 789.11 265.765 788.31 264.775 784.21C265.285 779.36 268.465 775.92 271.455 772.26C272.555 770.86 273.655 769.46 274.755 768.06C275.245 767.45 275.735 766.84 276.245 766.21C277.435 764.68 278.525 763.14 279.575 761.51C279.025 761.4 278.475 761.3 277.915 761.19C272.615 760.17 267.325 759.11 262.045 758.01C260.005 757.6 257.955 757.21 255.905 756.82C254.945 756.62 253.995 756.41 253.015 756.2C252.205 756.04 251.405 755.88 250.575 755.71C247.345 753.77 246.495 750.99 245.575 747.51C244.855 743.26 244.425 738.99 244.015 734.7C243.305 727.6 242.475 720.66 240.995 713.68C240.435 710.76 240.275 708.05 240.265 705.07C240.245 704.08 240.225 703.1 240.215 702.08C240.575 699.51 240.575 699.51 241.905 697.66C243.575 696.51 243.575 696.51 246.575 696.51C246.515 695.42 246.455 694.32 246.385 693.2C246.235 690.56 246.315 689.81 248.085 687.78C248.575 687.36 249.065 686.94 249.575 686.51Z" fill="#EEECE8"/>
<path d="M477.323 807.386C488.493 806.656 488.493 806.656 491.833 809.576C493.833 812.956 494.333 815.556 494.363 819.386C494.373 819.726 494.373 819.726 494.433 821.466C494.503 823.816 494.533 826.156 494.573 828.506C494.623 830.306 494.663 832.106 494.713 833.906C494.833 838.766 494.893 843.636 494.923 848.506C494.943 850.526 494.963 852.546 495.003 854.556C495.063 857.526 495.083 860.486 495.093 863.446C495.123 864.336 495.143 865.236 495.163 866.156C495.143 872.376 493.723 876.776 489.573 881.506C487.373 883.046 485.243 883.966 482.693 884.826C482.363 884.946 482.363 884.946 480.693 885.546C478.663 886.246 476.623 886.886 474.573 887.506C474.003 887.686 473.423 887.866 472.833 888.056C464.103 890.636 455.313 890.776 446.263 890.826C445.163 890.826 444.063 890.836 442.933 890.836C426.843 890.696 426.843 890.696 421.923 887.406C414.793 880.026 416.033 866.346 415.563 856.776C415.453 854.346 415.323 851.916 415.183 849.496C414.973 845.576 414.813 841.666 414.663 837.746C414.573 835.576 414.443 833.406 414.313 831.236C414.253 829.916 414.193 828.596 414.143 827.276C414.083 826.126 414.023 824.986 413.953 823.816C414.843 819.076 416.603 816.286 420.573 813.506C424.573 812.216 428.553 811.866 432.733 811.516C433.923 811.396 435.123 811.266 436.313 811.136C439.443 810.816 442.583 810.526 445.723 810.246C448.253 810.016 450.773 809.756 453.303 809.496C456.363 809.176 459.423 808.876 462.483 808.576C463.043 808.526 463.043 808.526 465.873 808.246C469.683 807.906 473.503 807.656 477.323 807.386Z" fill="#F8F7F2"/>
<path d="M162.574 597.509C164.744 602.299 165.784 607.289 166.954 612.389C168.424 618.719 169.934 625.039 171.634 631.319C173.064 636.609 174.474 641.889 175.824 647.199C176.004 647.869 176.174 648.539 176.354 649.229C177.154 652.409 177.654 655.239 177.574 658.509C136.324 669.369 136.324 669.369 121.384 673.129C120.464 673.369 119.544 673.599 118.594 673.849C113.924 675.009 109.344 675.929 104.574 676.509C104.234 675.719 103.894 674.939 103.544 674.129C99.8442 665.959 95.6042 659.969 87.4542 655.629C83.8342 654.309 80.1342 654.169 76.3342 653.939C76.0042 653.919 76.0042 653.919 74.3642 653.809C72.7642 653.709 71.1742 653.609 69.5742 653.509C68.4342 649.439 67.2942 645.359 66.1542 641.279C65.7742 639.899 65.3842 638.509 64.9942 637.129C64.4342 635.129 63.8742 633.139 63.3242 631.149C63.2342 630.839 63.2342 630.839 62.7942 629.269C62.0442 626.569 61.5742 624.329 61.5742 621.509C62.4642 621.309 63.3542 621.119 64.2742 620.919C67.6242 620.179 70.9742 619.429 74.3242 618.679C75.7642 618.359 77.2042 618.039 78.6542 617.729C85.7442 616.169 92.7342 614.609 99.5942 612.179C103.144 610.979 106.794 610.209 110.454 609.389C117.514 607.759 124.534 606.019 131.554 604.189C131.944 604.079 131.944 604.079 133.924 603.569C137.094 602.739 140.264 601.909 143.434 601.069C145.674 600.479 147.924 599.889 150.164 599.299C150.504 599.209 150.504 599.209 152.204 598.749C155.754 597.839 158.874 597.309 162.574 597.509Z" fill="#BEE4F6"/>
<path d="M639.574 561.511C647.754 566.981 652.944 575.081 655.574 584.511C656.794 594.891 654.664 603.071 650.574 612.511C650.204 613.391 649.824 614.261 649.444 615.171C648.464 617.381 647.454 619.571 646.414 621.761C645.354 623.971 644.304 626.191 643.254 628.421C641.034 633.121 638.804 637.811 636.574 642.511C630.814 642.021 626.694 640.361 621.634 637.631C616.974 635.161 612.384 632.951 607.404 631.201C605.484 630.471 603.704 629.591 601.884 628.631C598.374 626.821 594.764 625.391 591.074 624.011C586.704 622.371 582.504 620.591 578.364 618.421C575.494 616.961 572.544 615.751 569.574 614.511C570.154 609.741 571.484 606.001 573.524 601.711C573.674 601.401 573.674 601.401 574.414 599.791C575.044 598.461 575.674 597.121 576.304 595.791C577.254 593.781 578.184 591.771 579.114 589.761C585.724 575.621 591.674 563.271 607.104 557.401C618.094 554.191 629.804 555.691 639.574 561.511Z" fill="#FA5E47"/>
<path d="M568.574 613.51C570.654 614.3 572.734 615.09 574.804 615.88C575.394 616.1 575.974 616.32 576.584 616.55C580.404 618.01 584.054 619.65 587.684 621.55C591.244 623.36 594.914 624.91 598.574 626.51C600.074 627.18 601.574 627.84 603.074 628.51C603.424 628.67 603.424 628.67 605.204 629.46C606.684 630.11 608.164 630.78 609.644 631.44C613.534 633.17 617.434 634.88 621.354 636.55C622.924 637.22 624.504 637.9 626.074 638.57C626.884 638.91 627.694 639.25 628.524 639.6C629.294 639.93 630.064 640.26 630.854 640.61C631.544 640.9 632.234 641.2 632.954 641.5C634.574 642.51 634.574 642.51 635.574 645.51C635.014 647.55 635.014 647.55 634.134 649.7C633.994 650.06 633.994 650.06 633.264 651.87C633.034 652.41 632.814 652.95 632.574 653.51C631.584 653.52 630.594 653.54 629.574 653.55C619.154 653.86 613.224 655.51 605.824 663.2C598.634 671.07 598.014 680.48 598.324 690.63C598.344 691.78 598.364 692.93 598.374 694.11C598.424 696.91 598.494 699.71 598.574 702.51C593.904 703.53 589.524 703.73 584.764 703.76C583.994 703.78 583.224 703.8 582.434 703.82C572.684 703.89 565.564 700.2 558.574 693.51C551.664 685.42 548.414 677.87 548.074 667.26C548.054 666.97 548.054 666.97 547.984 665.53C547.974 653.31 556.384 640.07 561.384 629.2C562.084 627.67 562.784 626.14 563.484 624.61C565.174 620.91 566.874 617.21 568.574 613.51Z" fill="#3ED3F5"/>
<path d="M136.576 530.509C141.746 534.189 142.906 538.579 144.576 544.509C144.866 545.369 145.156 546.219 145.456 547.099C148.316 555.639 148.316 555.639 146.576 560.509C145.916 561.129 145.256 561.749 144.576 562.389C142.326 564.769 142.256 565.499 141.956 568.639C141.916 568.999 141.916 568.999 141.726 570.829C141.676 571.389 141.626 571.939 141.576 572.509C141.236 572.589 141.236 572.589 139.506 572.999C115.886 578.559 115.886 578.559 106.056 581.519C103.296 582.329 100.516 583.019 97.726 583.689C97.296 583.789 97.296 583.789 95.146 584.319C93.476 584.729 91.816 585.119 90.146 585.499C83.276 587.189 78.576 590.309 74.696 596.319C70.406 603.729 72.936 611.539 74.576 619.509C70.186 620.729 66.176 621.799 61.576 621.509C59.156 614.429 57.436 608.059 58.576 600.509C60.416 597.029 62.806 594.279 65.576 591.509C65.616 589.509 65.616 587.509 65.576 585.509C64.506 585.299 63.436 585.099 62.326 584.889C59.036 583.899 57.176 582.689 55.416 579.599C52.336 571.949 50.216 562.749 51.576 554.509C54.096 549.779 57.696 548.219 62.576 546.509C66.076 545.569 69.596 544.819 73.136 544.069C80.316 542.499 87.346 540.789 94.376 538.689C101.906 536.509 109.556 534.749 117.156 532.879C117.766 532.729 118.366 532.589 118.986 532.429C120.656 532.019 122.326 531.609 123.996 531.199C131.616 529.149 131.616 529.149 136.576 530.509Z" fill="#EBE6DA"/>
<path d="M197.574 910.51C197.734 911.04 197.894 911.57 198.054 912.12C198.174 912.47 198.174 912.47 198.764 914.26C198.984 914.96 199.204 915.65 199.434 916.37C200.574 918.51 200.574 918.51 203.114 920.27C206.594 923.44 206.444 926.11 206.694 930.63C206.834 932.17 206.974 933.71 207.124 935.24C207.194 935.98 207.264 936.72 207.334 937.48C208.374 946.4 212.194 956.15 218.574 962.51C218.574 963.17 218.574 963.83 218.574 964.51C210.984 964.81 203.624 963.89 196.134 962.82C195.504 962.73 194.884 962.65 194.234 962.56C137.764 954.6 137.764 954.6 115.574 943.51C119.754 933.4 135.794 927.9 145.244 923.78C157.504 918.71 170.754 915.83 183.574 912.51C184.384 912.3 185.184 912.08 186.014 911.86C186.374 911.77 186.374 911.77 188.144 911.31C188.734 911.16 189.324 911 189.924 910.84C192.514 910.32 194.944 910.38 197.574 910.51Z" fill="#7C5849"/>
<path d="M513.574 912.51C520.494 912.99 526.864 914.16 533.514 916.13C534.414 916.4 535.324 916.67 536.254 916.94C548.904 920.73 561.174 925 572.884 931.13C573.574 931.5 574.264 931.86 574.974 932.23C579.284 934.58 582.894 937.26 586.574 940.51C585.574 943.51 585.574 943.51 584.144 944.41C583.834 944.54 583.834 944.54 582.274 945.16C581.924 945.3 581.924 945.3 580.154 946.01C579.384 946.3 578.614 946.59 577.824 946.89C577.424 947.04 577.424 947.04 575.374 947.81C548.534 957.64 518.794 960.69 490.574 964.51C491.914 961.04 493.394 958.11 495.454 955.01C500.414 946.82 502.464 938.33 503.454 928.95C504.094 923.07 504.094 923.07 505.924 920.95C507.424 920.06 509.004 919.28 510.574 918.51C511.904 916.57 512.674 914.7 513.574 912.51Z" fill="#7A5647"/>
<path d="M619.388 556.01C619.738 556.01 619.738 556.01 621.528 555.99C626.508 556.11 630.108 557.31 634.578 559.51C634.758 562.86 634.788 564.89 632.578 567.51C631.938 567.35 631.298 567.18 630.638 567.01C620.848 565.41 620.848 565.41 616.818 567.36C615.578 568.51 615.578 568.51 615.328 571.07C615.578 573.51 615.578 573.51 616.578 574.51C618.598 574.79 620.628 574.96 622.668 575.13C624.578 575.51 624.578 575.51 626.578 577.51C626.278 582.53 624.388 586.29 622.078 590.63C618.318 597.9 614.918 605.28 611.638 612.77C606.768 623.78 606.768 623.78 603.328 625.89C597.088 627.3 592.138 625.12 586.768 622.2C581.158 619.26 575.518 616.71 569.578 614.51C570.158 609.74 571.488 606 573.528 601.71C573.668 601.4 573.668 601.4 574.418 599.79C575.048 598.46 575.668 597.12 576.298 595.79C577.248 593.78 578.188 591.77 579.118 589.76C585.738 575.6 591.678 563.33 607.088 557.39C611.138 556.2 615.178 556.04 619.388 556.01Z" fill="#F14130"/>
<path d="M178.574 658.51C180.324 663.47 182.014 668.26 182.574 673.51C182.654 674.12 182.724 674.74 182.804 675.37C183.164 680.31 182.074 683.69 179.254 687.76C176.244 690.89 172.594 692.07 168.574 693.51C167.424 694.07 166.284 694.63 165.134 695.2C161.404 696.83 157.644 697 153.614 697.2C153.274 697.25 153.274 697.25 151.574 697.51C151.404 697.84 151.404 697.84 150.574 699.51C149.034 699.78 149.034 699.78 146.954 699.89C143.234 700.2 139.934 700.94 136.384 702.01C130.224 703.86 124.464 704.91 118.014 704.95C117.684 704.95 117.684 704.95 116.024 704.98C111.054 704.89 109.634 704.04 104.574 701.51C104.904 693.26 105.234 685.01 105.574 676.51C122.754 671.57 140.004 667.09 157.354 662.8C158.204 662.59 159.054 662.38 159.934 662.16C161.544 661.76 163.164 661.36 164.774 660.97C165.494 660.79 166.214 660.61 166.954 660.43C167.584 660.28 168.214 660.12 168.864 659.96C172.334 659.05 174.954 658.41 178.574 658.51Z" fill="#F5F2EC"/>
<path d="M477.323 807.386C488.493 806.656 488.493 806.656 491.833 809.576C493.833 812.956 494.333 815.556 494.363 819.386C494.373 819.726 494.373 819.726 494.433 821.466C494.503 823.816 494.533 826.156 494.573 828.506C494.623 830.306 494.663 832.106 494.713 833.906C494.833 838.766 494.893 843.636 494.923 848.506C494.943 850.526 494.963 852.546 495.003 854.556C495.063 857.526 495.083 860.486 495.093 863.446C495.123 864.336 495.143 865.236 495.163 866.156C495.143 872.376 493.723 876.776 489.573 881.506C487.373 883.046 485.243 883.966 482.693 884.826C482.363 884.946 482.363 884.946 480.693 885.546C478.663 886.246 476.623 886.886 474.573 887.506C474.003 887.686 473.423 887.866 472.833 888.056C464.103 890.636 455.313 890.776 446.263 890.826C445.163 890.826 444.063 890.836 442.933 890.836C426.843 890.696 426.843 890.696 421.923 887.406C414.793 880.026 416.033 866.346 415.563 856.776C415.453 854.346 415.323 851.916 415.183 849.496C414.973 845.576 414.813 841.666 414.663 837.746C414.573 835.576 414.443 833.406 414.313 831.236C414.253 829.916 414.193 828.596 414.143 827.276C414.083 826.126 414.023 824.986 413.953 823.816C414.843 819.076 416.603 816.286 420.573 813.506C424.573 812.216 428.553 811.866 432.733 811.516C433.923 811.396 435.123 811.266 436.313 811.136C439.443 810.816 442.583 810.526 445.723 810.246C448.253 810.016 450.773 809.756 453.303 809.496C456.363 809.176 459.423 808.876 462.483 808.576C463.043 808.526 463.043 808.526 465.873 808.246C469.683 807.906 473.503 807.656 477.323 807.386ZM468.633 815.536C468.213 815.586 468.213 815.586 466.073 815.856C463.383 816.196 460.693 816.536 458.013 816.886C456.233 817.106 454.453 817.336 452.683 817.556C442.963 818.786 433.263 820.086 423.573 821.506C423.383 858.266 423.383 858.266 423.823 870.006C423.833 870.366 423.833 870.366 423.863 872.196C424.093 876.876 425.243 879.246 428.573 882.506C431.023 883.006 432.773 883.166 435.213 883.106C435.863 883.106 436.513 883.106 437.173 883.106C438.553 883.096 439.923 883.086 441.293 883.056C443.343 883.016 445.383 883.016 447.433 883.016C460.003 882.956 473.933 881.856 484.573 874.506C486.573 872.116 486.823 870.426 486.803 867.346C486.803 866.486 486.803 865.626 486.803 864.746C486.783 863.796 486.773 862.856 486.763 861.886C486.753 861.396 486.753 861.396 486.743 858.906C486.643 849.486 486.393 840.056 486.133 830.636C486.113 829.886 486.093 829.146 486.073 828.376C486.023 826.256 485.953 824.136 485.893 822.016C485.873 821.376 485.853 820.726 485.843 820.066C485.683 815.626 485.683 815.626 484.573 814.506C479.173 814.286 473.983 814.836 468.633 815.536Z" fill="#D3D2D1"/>
<path d="M481.575 289.51C482.145 289.63 482.715 289.74 483.305 289.86C496.095 292.42 508.535 294.19 521.575 294.51C521.245 295.5 520.915 296.49 520.575 297.51C518.115 298.25 518.115 298.25 514.765 298.82C494.595 302.69 475.435 309.64 458.575 321.51C458.105 321.84 457.635 322.17 457.145 322.51C449.525 327.9 442.585 333.88 435.845 340.31C434.795 341.3 433.725 342.27 432.655 343.24C411.225 363.13 397.545 395.02 393.575 423.51C393.245 423.51 392.915 423.51 392.575 423.51C392.555 423.05 392.555 423.05 392.475 420.73C391.755 402.44 390.395 384.79 386.595 366.87C385.715 362.63 385.345 358.83 385.575 354.51C385.935 354.41 385.935 354.41 387.755 353.92C413.615 346.44 438.695 333.39 458.255 314.72C460.225 312.85 462.225 311.1 464.325 309.39C471.035 303.68 476.265 296.48 481.575 289.51Z" fill="#CCDF75"/>
<path d="M199.574 890.51C199.744 898.56 199.224 906.5 198.574 914.51C198.414 913.85 198.414 913.85 197.574 910.51C131.664 924.86 131.664 924.86 115.574 942.51C111.104 941.09 106.864 939.4 102.574 937.51C104.394 928.59 110.914 922.67 118.114 917.71C129.404 910.34 141.814 905.62 154.574 901.51C155.674 901.15 156.774 900.8 157.904 900.43C161.114 899.41 164.334 898.45 167.574 897.51C168.274 897.3 168.984 897.1 169.704 896.89C191.694 890.51 191.694 890.51 199.574 890.51Z" fill="#EDD4AE"/>
<path d="M512.574 892.51C520.864 893.74 528.744 895.47 536.784 897.8C538.574 898.32 540.364 898.82 542.154 899.32C549.884 901.52 557.214 904.25 564.574 907.51C564.964 907.68 564.964 907.68 566.954 908.54C575.564 912.31 583.604 916.07 590.574 922.51C591.224 923.1 591.884 923.69 592.554 924.29C596.194 927.71 598.854 930.79 600.574 935.51C600.244 936.5 599.914 937.49 599.574 938.51C599.214 938.56 599.214 938.56 597.384 938.82C594.574 939.51 594.574 939.51 592.014 941.2C591.204 941.63 590.404 942.06 589.574 942.51C586.494 941.33 584.114 939.44 581.514 937.45C561.954 923.61 536.874 916.71 513.574 912.51C513.244 905.91 512.914 899.31 512.574 892.51Z" fill="#ECD4AD"/>
<path d="M245.701 696.759C247.581 697.509 247.581 697.509 248.581 698.509C248.931 700.679 249.221 702.829 249.481 705.009C249.561 705.669 249.641 706.339 249.731 707.019C249.991 709.179 250.251 711.349 250.511 713.509C250.691 714.979 250.871 716.449 251.051 717.919C251.571 722.109 252.071 726.309 252.581 730.509C252.641 731.029 252.641 731.029 252.961 733.689C253.511 738.299 254.041 742.899 254.581 747.509C258.291 748.209 262.011 748.899 265.731 749.589C266.991 749.829 268.251 750.059 269.511 750.299C271.341 750.639 273.161 750.979 274.991 751.319C276.081 751.519 277.171 751.729 278.301 751.939C280.661 752.349 282.991 752.699 285.361 753.009C288.581 753.509 288.581 753.509 290.581 754.759C291.581 756.509 291.581 756.509 291.321 758.869C290.521 761.709 289.541 763.259 287.701 765.539C287.131 766.269 286.561 766.999 285.961 767.749C285.361 768.489 284.761 769.239 284.141 770.009C276.931 778.999 276.931 778.999 275.581 783.509C280.471 787.599 285.331 791.459 290.761 794.819C295.261 797.609 299.521 800.609 303.761 803.759C314.451 811.699 325.461 819.189 336.581 826.509C335.701 831.379 335.701 831.379 334.581 832.509C330.611 833.069 328.501 832.119 325.331 829.769C325.061 829.559 325.061 829.559 323.701 828.509C322.461 827.589 321.211 826.659 319.971 825.739C319.271 825.229 318.581 824.719 317.871 824.189C313.941 821.309 309.931 818.549 305.931 815.779C303.451 814.069 300.981 812.349 298.501 810.629C298.011 810.289 297.521 809.949 297.011 809.589C291.861 806.009 286.721 802.419 281.581 798.819C280.771 798.259 279.961 797.699 279.131 797.109C277.641 796.069 276.141 795.009 274.661 793.949C273.291 792.999 271.891 792.099 270.461 791.249C266.991 789.109 265.771 788.309 264.771 784.209C265.291 779.359 268.471 775.919 271.451 772.259C272.551 770.859 273.651 769.459 274.751 768.059C275.251 767.449 275.741 766.839 276.251 766.209C277.441 764.679 278.531 763.139 279.581 761.509C279.031 761.399 278.481 761.299 277.911 761.189C272.621 760.169 267.331 759.109 262.051 758.009C260.001 757.599 257.951 757.209 255.901 756.819C254.951 756.619 254.001 756.409 253.011 756.199C252.211 756.039 251.401 755.879 250.571 755.709C247.351 753.769 246.501 750.989 245.581 747.509C244.861 743.259 244.421 738.989 244.011 734.699C243.301 727.599 242.481 720.659 240.991 713.679C240.431 710.759 240.271 708.049 240.261 705.069C240.251 704.079 240.231 703.099 240.211 702.079C240.581 699.509 240.581 699.509 241.961 697.649C243.581 696.509 243.581 696.509 245.701 696.759Z" fill="#CFCECE"/>
<path d="M240.574 713.51C240.904 713.51 241.234 713.51 241.574 713.51C243.834 723.53 245.154 733.25 245.574 743.51C244.584 743.18 243.594 742.85 242.574 742.51C242.574 739.54 242.574 736.57 242.574 733.51C240.744 738.9 239.014 744.3 237.414 749.76C236.934 751.33 236.434 752.9 235.894 754.45C233.874 760.27 232.434 766.11 231.134 772.13C229.784 778.38 228.314 784.57 226.634 790.74C224.524 798.53 222.744 806.37 221.074 814.26C220.924 814.97 220.774 815.67 220.614 816.4C218.104 828.25 216.124 840.1 214.494 852.1C213.824 856.99 212.984 861.83 212.094 866.68C210.624 874.78 209.594 882.9 208.694 891.09C208.444 893.34 208.194 895.59 207.934 897.84C207.014 906.06 206.194 914.27 205.574 922.51C199.694 918.76 199.694 918.76 198.574 916.51C197.384 896.11 199.354 873.47 204.534 853.69C206.194 847.35 207.094 840.84 208.164 834.38C208.244 833.88 208.244 833.88 208.674 831.36C208.824 830.45 208.974 829.54 209.124 828.61C209.574 826.51 209.574 826.51 210.574 825.51C211.114 822.32 211.544 819.11 211.974 815.9C212.574 812.51 212.574 812.51 213.534 809.64C214.854 805.67 215.564 801.68 216.324 797.57C220.794 774.49 227.804 752 234.574 729.51C235.234 729.51 235.894 729.51 236.574 729.51C236.634 729.23 236.634 729.23 236.944 727.79C237.984 722.97 239.164 718.24 240.574 713.51Z" fill="#EDEBE5"/>
<path d="M467.575 696.51C472.455 697.39 472.455 697.39 473.575 698.51C474.855 705.36 474.425 711.63 473.265 718.45C472.975 720.28 472.685 722.11 472.405 723.94C472.335 724.4 472.335 724.4 471.975 726.73C471.225 731.93 470.755 737.15 470.315 742.38C469.425 751.87 469.425 751.87 466.385 754.56C463.815 755.91 461.305 756.26 458.445 756.76C457.855 756.87 457.265 756.98 456.655 757.08C454.775 757.42 452.895 757.75 451.015 758.07C449.125 758.4 447.245 758.74 445.355 759.07C443.645 759.37 441.945 759.67 440.235 759.97C437.575 760.51 437.575 760.51 435.575 761.51C435.855 761.9 436.135 762.3 436.425 762.7C437.725 764.51 439.025 766.32 440.325 768.13C440.765 768.75 441.215 769.37 441.665 770.01C449.375 780.77 449.375 780.77 450.265 784.01C448.435 790.64 438.785 795.3 433.385 799.01C431.605 800.25 429.825 801.48 428.045 802.72C427.135 803.35 426.235 803.98 425.295 804.62C421.825 807.03 418.355 809.46 414.895 811.88C413.225 813.05 411.565 814.21 409.905 815.37C405.805 818.22 401.745 821.11 397.715 824.06C396.945 824.62 396.175 825.18 395.375 825.76C393.925 826.81 392.475 827.88 391.045 828.96C388.175 831.03 386.265 832.4 382.725 832.96C380.575 832.51 380.575 832.51 378.575 830.51C378.545 828.7 378.545 828.7 379.575 826.51C381.575 824.61 383.815 823.08 386.075 821.51C386.745 821.03 387.415 820.56 388.105 820.07C390.255 818.54 392.415 817.02 394.575 815.51C395.965 814.52 397.365 813.53 398.755 812.55C402.295 810.04 405.845 807.54 409.395 805.04C419.505 797.94 429.615 790.83 439.575 783.51C437.795 779.51 435.255 776.11 432.695 772.57C432.265 771.96 431.835 771.36 431.385 770.73C429.415 767.99 427.425 765.31 425.245 762.74C423.575 760.51 423.575 760.51 423.695 757.82C424.575 755.51 424.575 755.51 426.575 753.51C429.035 752.92 431.435 752.43 433.915 752C434.285 751.94 434.285 751.94 436.115 751.61C438.435 751.19 440.755 750.79 443.075 750.39C444.635 750.11 446.205 749.83 447.765 749.55C449.255 749.28 450.745 749.02 452.235 748.75C452.935 748.63 453.645 748.5 454.365 748.37C459.335 747.51 459.335 747.51 461.575 747.51C461.565 746.96 461.555 746.41 461.545 745.84C461.495 740.49 461.785 735.28 462.375 729.97C462.425 729.58 462.425 729.58 462.635 727.63C462.815 726.01 462.995 724.4 463.175 722.78C463.455 720.32 463.715 717.86 463.975 715.39C464.155 713.81 464.325 712.23 464.505 710.65C464.545 710.29 464.545 710.29 464.735 708.45C465.225 704.22 466.085 700.5 467.575 696.51Z" fill="#D3D2D1"/>
<path d="M133.575 538.51C137.695 550.89 137.695 550.89 137.635 555.2C137.625 556.01 137.615 556.81 137.615 557.65C137.595 558.26 137.585 558.88 137.575 559.51C134.225 561.54 131.705 561.73 127.825 561.63C126.845 561.62 125.855 561.6 124.845 561.58C124.095 561.56 123.345 561.53 122.575 561.51C122.285 562.13 121.995 562.75 121.695 563.39C120.575 565.51 120.575 565.51 118.575 567.51C116.865 567.31 115.155 567.1 113.465 566.8C110.825 566.39 108.235 566.45 105.575 566.51C105.245 567.83 104.915 569.15 104.575 570.51C104.095 570.5 103.605 570.49 103.105 570.47C98.1753 570.41 93.4453 570.78 88.5753 571.51C88.5753 572.5 88.5753 573.49 88.5753 574.51C81.8253 574.63 81.8253 574.63 79.5753 573.51C78.8853 571.92 78.8853 571.92 78.2853 569.87C78.0653 569.13 77.8453 568.39 77.6253 567.62C77.4053 566.84 77.1753 566.06 76.9553 565.26C76.7253 564.5 76.4953 563.73 76.2553 562.94C75.1353 559.08 74.1453 555.58 74.5753 551.51C74.9053 551.18 75.2353 550.85 75.5753 550.51C76.8653 550.52 78.1553 550.56 79.4553 550.63C83.3753 550.7 83.3753 550.7 85.0753 549.07C85.5753 548.56 86.0653 548.04 86.5753 547.51C88.5653 547.11 90.5253 546.94 92.5353 546.75C95.3653 546.42 97.8853 545.42 100.575 544.51C103.215 543.95 105.855 543.45 108.505 542.97C110.575 542.51 110.575 542.51 111.575 541.51C112.735 541.35 113.905 541.23 115.075 541.13C118.355 540.78 121.165 540.03 124.265 538.89C127.735 537.64 129.985 537.24 133.575 538.51Z" fill="#F6F2EB"/>
<path d="M75.576 544.509C74.836 545.049 74.086 545.579 73.326 546.129C71.236 547.779 69.936 549.359 68.576 551.629C66.756 554.599 64.976 555.569 61.576 556.509C62.436 570.469 62.436 570.469 65.576 576.509C68.436 578.159 69.406 578.359 72.576 578.509C73.576 578.589 74.586 578.659 75.616 578.739C83.206 579.049 89.776 577.939 97.036 575.789C104.006 573.749 111.136 572.289 118.216 570.699C124.076 569.379 129.826 567.909 135.546 566.059C137.576 565.509 137.576 565.509 140.576 565.509C140.736 566.659 140.736 566.659 141.576 572.509C140.896 572.669 140.206 572.829 139.506 572.999C115.886 578.559 115.886 578.559 106.056 581.519C103.296 582.329 100.516 583.019 97.726 583.689C97.296 583.789 97.296 583.789 95.146 584.319C93.476 584.729 91.816 585.119 90.146 585.499C83.276 587.189 78.576 590.309 74.696 596.319C70.406 603.729 72.936 611.539 74.576 619.509C70.186 620.729 66.176 621.799 61.576 621.509C59.156 614.429 57.436 608.059 58.576 600.509C60.416 597.029 62.806 594.279 65.576 591.509C65.616 589.509 65.616 587.509 65.576 585.509C64.506 585.299 63.436 585.099 62.326 584.889C59.036 583.899 57.176 582.689 55.416 579.599C52.336 571.949 50.216 562.749 51.576 554.509C54.116 549.729 57.636 548.109 62.576 546.509C66.956 545.179 70.966 544.219 75.576 544.509Z" fill="#D6CEBF"/>
<path d="M124.575 617.511C127.055 621.271 127.985 625.011 127.575 629.511C128.095 629.291 128.615 629.081 129.145 628.851C136.515 625.911 136.515 625.911 140.575 626.511C143.165 629.101 143.315 631.541 143.825 635.011C143.875 635.311 143.875 635.311 144.135 636.811C144.405 638.541 144.405 638.541 144.575 641.511C142.155 643.931 140.775 644.041 137.455 644.631C136.535 644.801 135.625 644.971 134.695 645.141C133.995 645.261 133.295 645.391 132.575 645.511C132.745 645.921 132.745 645.921 133.575 648.011C134.875 651.831 134.755 655.511 134.575 659.511C133.015 660.051 131.455 660.561 129.885 661.071C129.015 661.361 128.145 661.651 127.255 661.951C124.245 662.581 122.465 662.561 119.575 661.511C118.435 659.771 118.435 659.771 117.765 657.631C117.525 656.941 117.295 656.241 117.055 655.521C116.575 653.511 116.575 653.511 116.575 650.511C116.055 650.671 116.055 650.671 113.455 651.511C110.095 652.481 107.085 652.681 103.575 652.511C101.125 647.021 100.145 642.511 100.575 636.511C101.845 636.001 103.115 635.511 104.385 635.011C105.095 634.731 105.805 634.451 106.535 634.171C108.575 633.511 108.575 633.511 111.575 633.511C111.225 632.501 110.875 631.491 110.515 630.451C109.355 626.471 109.755 623.541 110.575 619.511C120.865 615.541 120.865 615.541 124.575 617.511Z" fill="#50BE7C"/>
<path d="M601.574 628.51C604.454 629.15 606.994 630.06 609.664 631.29C613.034 632.81 616.404 634.31 619.794 635.76C621.554 636.53 623.314 637.3 625.074 638.07C625.524 638.27 625.524 638.27 627.814 639.24C628.674 639.62 629.534 640 630.414 640.39C631.194 640.72 631.964 641.06 632.764 641.41C634.574 642.51 634.574 642.51 635.574 645.51C635.014 647.55 635.014 647.55 634.134 649.7C633.854 650.41 633.564 651.13 633.264 651.87C633.034 652.41 632.814 652.95 632.574 653.51C631.584 653.52 630.594 653.54 629.574 653.55C619.154 653.86 613.224 655.51 605.824 663.2C599.334 671.13 597.914 679.47 597.574 689.51C596.624 688.32 595.674 687.13 594.724 685.94C593.654 684.61 592.554 683.31 591.454 682.01C587.904 677.28 586.904 672.74 586.994 666.92C588.154 660.08 591.504 653.95 594.504 647.75C596.104 644.39 597.604 640.99 599.074 637.57C599.324 637 599.584 636.43 599.844 635.84C601.004 633.18 601.574 631.45 601.574 628.51Z" fill="#6BE1FA"/>
<path d="M568.573 613.51C572.863 615.16 577.153 616.81 581.573 618.51C580.913 618.84 580.253 619.17 579.573 619.51C578.953 621.06 578.953 621.06 578.363 623.16C577.023 627.41 575.353 631.41 573.503 635.45C573.223 636.07 572.943 636.68 572.653 637.32C571.483 639.89 570.303 642.45 569.113 645.01C563.703 656.73 558.793 668.13 562.763 681.2C565.693 688.81 569.613 693.99 576.003 699.06C576.523 699.54 577.033 700.02 577.573 700.51C577.573 701.17 577.573 701.83 577.573 702.51C578.233 702.84 578.893 703.17 579.573 703.51C571.143 703.35 564.773 699.44 558.683 693.74C551.853 686.09 548.233 677.65 548.133 667.39C548.103 666.81 548.073 666.24 548.033 665.64C547.893 653.4 556.383 640.08 561.383 629.2C562.083 627.67 562.783 626.14 563.483 624.61C565.173 620.91 566.873 617.21 568.573 613.51Z" fill="#34BEDF"/>
<path d="M453.359 829.279C454.439 829.289 455.519 829.309 456.639 829.319C457.179 829.329 457.179 829.329 459.919 829.339C462.569 829.509 462.569 829.509 463.569 830.509C463.649 832.199 463.659 833.889 463.639 835.569C463.629 836.489 463.619 837.409 463.609 838.359C463.599 839.069 463.589 839.779 463.569 840.509C464.359 840.499 465.139 840.489 465.949 840.479C466.959 840.469 467.969 840.459 469.009 840.449C470.019 840.439 471.029 840.419 472.069 840.409C474.569 840.509 474.569 840.509 475.569 841.509C475.699 843.489 475.749 845.469 475.759 847.449C475.779 848.529 475.789 849.609 475.809 850.729C475.569 853.509 475.569 853.509 473.569 855.509C471.189 855.919 471.189 855.919 468.449 856.139C467.539 856.209 466.629 856.279 465.689 856.359C464.989 856.409 464.289 856.459 463.569 856.509C463.589 857.349 463.599 858.199 463.609 859.069C463.619 860.159 463.629 861.259 463.639 862.389C463.649 863.479 463.659 864.569 463.669 865.689C463.569 868.509 463.569 868.509 462.569 870.509C460.429 870.539 458.279 870.559 456.139 870.569C455.529 870.579 454.909 870.589 454.279 870.599C452.709 870.609 451.139 870.559 449.569 870.509C448.569 869.509 448.569 869.509 448.479 867.229C448.489 866.309 448.499 865.389 448.509 864.449C448.519 863.529 448.529 862.609 448.539 861.659C448.549 860.949 448.559 860.239 448.569 859.509C448.229 859.519 448.229 859.519 446.459 859.579C445.549 859.599 444.639 859.619 443.699 859.639C442.789 859.659 441.889 859.679 440.959 859.709C438.569 859.509 438.569 859.509 436.569 857.509C436.309 854.759 436.309 854.759 436.319 851.509C436.319 850.439 436.309 849.369 436.309 848.259C436.569 845.509 436.569 845.509 438.569 843.509C440.959 843.319 440.959 843.319 443.699 843.389C444.149 843.389 444.149 843.389 446.459 843.439C447.159 843.459 447.859 843.489 448.569 843.509C448.549 842.669 448.529 841.819 448.499 840.959C448.489 839.859 448.469 838.759 448.449 837.639C448.429 836.539 448.399 835.449 448.379 834.329C448.649 830.439 449.479 829.599 453.359 829.279Z" fill="#5BC37C"/>
<path d="M624.574 556.511C625.234 557.171 625.894 557.831 626.574 558.511C626.094 558.671 625.604 558.831 625.104 558.991C609.994 564.251 601.504 574.541 594.574 588.511C583.934 610.591 583.934 610.591 581.574 618.511C579.944 618.031 578.324 617.551 576.694 617.071C575.794 616.811 574.894 616.541 573.954 616.261C571.574 615.511 571.574 615.511 569.574 614.511C570.154 609.741 571.484 606.001 573.524 601.711C573.674 601.401 573.674 601.401 574.414 599.791C575.044 598.461 575.674 597.121 576.304 595.791C577.254 593.781 578.184 591.771 579.114 589.761C585.814 575.441 591.724 563.411 607.264 557.391C612.964 555.881 618.734 555.751 624.574 556.511Z" fill="#DF3629"/>
<path d="M318.549 644.227C319.239 644.227 319.929 644.227 320.639 644.237C321.369 644.227 322.089 644.227 322.839 644.217C325.249 644.207 327.659 644.207 330.069 644.207C331.739 644.207 333.409 644.197 335.089 644.197C338.589 644.187 342.099 644.187 345.599 644.197C350.099 644.197 354.599 644.187 359.099 644.157C362.549 644.147 365.999 644.147 369.449 644.147C371.109 644.147 372.769 644.137 374.429 644.127C376.749 644.117 379.059 644.127 381.379 644.137C381.719 644.137 381.719 644.137 383.459 644.117C386.299 644.147 388.149 644.207 390.499 645.877C392.049 648.227 391.989 649.757 391.569 652.507C390.499 654.147 390.499 654.147 388.569 655.507C386.089 655.797 383.859 655.907 381.379 655.877C380.649 655.887 379.919 655.887 379.169 655.897C376.759 655.897 374.359 655.887 371.949 655.877C370.269 655.867 368.599 655.877 366.929 655.877C363.419 655.877 359.919 655.867 356.409 655.847C351.919 655.827 347.419 655.827 342.919 655.827C339.469 655.837 336.009 655.827 332.559 655.817C330.899 655.807 329.239 655.807 327.579 655.817C325.269 655.817 322.949 655.797 320.639 655.787C320.289 655.787 320.289 655.787 318.549 655.787C313.799 655.737 313.799 655.737 311.569 653.507C311.309 651.857 311.309 651.857 311.319 650.007C311.319 649.397 311.309 648.797 311.309 648.167C311.979 643.987 315.029 644.267 318.549 644.227Z" fill="#6F4D21"/>
<path d="M389.576 586.51C393.976 588.39 396.926 591.6 399.576 595.51C401.726 601.96 401.806 610.86 398.956 617.13C396.816 620.61 394.446 623.08 390.576 624.51C387.046 625.25 384.076 625.3 380.836 623.59C376.896 620.57 374.126 616.71 373.276 611.75C373.136 609.87 373.106 608.02 373.136 606.13C373.146 605.48 373.156 604.82 373.156 604.14C373.386 597.33 375.266 593 379.886 588.01C383.306 586.1 385.746 585.8 389.576 586.51Z" fill="#6E4A20"/>
<path d="M321.574 587.51C325.304 590.59 328.044 593.91 329.574 598.51C330.174 606.31 330.754 614.09 325.574 620.51C322.534 623.74 319.454 624.81 315.074 625.2C312.274 625.08 310.964 624.81 308.734 623.08C307.164 621.29 305.834 619.54 304.574 617.51C304.194 616.91 303.824 616.32 303.434 615.7C302.264 612.71 302.234 609.86 302.264 606.7C302.264 606.38 302.264 606.38 302.274 604.8C302.434 598.45 303.704 594.29 308.134 589.63C312.474 585.86 316.154 585.75 321.574 587.51Z" fill="#6D4920"/>
<path d="M634.574 559.51C643.724 563.27 649.334 569.25 653.574 578.2C656.184 584.97 656.044 591.38 655.574 598.51C655.244 598.51 654.914 598.51 654.574 598.51C654.574 594.55 654.574 590.59 654.574 586.51C651.694 586.7 651.694 586.7 648.574 587.51C647.324 589.95 647.324 589.95 646.574 592.51C644.574 594.51 644.574 594.51 641.574 594.76C638.574 594.51 638.574 594.51 636.574 592.51C636.084 590.74 636.084 590.74 635.694 588.7C634.484 583.52 632.354 580.64 627.824 577.76C624.534 576.49 621.794 576.04 618.304 575.82C616.574 575.51 616.574 575.51 614.574 573.51C614.194 571.07 614.194 571.07 614.574 568.51C616.374 566.24 617.804 565.6 620.664 565.26C625.064 565.14 628.594 565.45 632.574 567.51C633.234 564.87 633.894 562.23 634.574 559.51Z" fill="#FA6B54"/>
<path d="M481.574 289.51C482.144 289.63 482.714 289.74 483.304 289.86C496.094 292.42 508.534 294.19 521.574 294.51C521.244 295.5 520.914 296.49 520.574 297.51C518.114 298.25 518.114 298.25 514.764 298.82C491.724 303.24 470.564 311.77 452.134 326.44C450.574 327.51 450.574 327.51 448.574 327.51C448.914 323.42 450.164 321.52 453.214 318.82C453.704 318.41 454.194 318 454.694 317.57C455.194 317.14 455.694 316.7 456.214 316.25C458.324 314.41 460.464 312.6 462.614 310.81C470.014 304.64 475.754 297.15 481.574 289.51Z" fill="#CCDF76"/>
<path d="M78.5742 619.51C77.5842 619.84 76.5942 620.17 75.5742 620.51C75.7842 621.3 75.9842 622.09 76.2042 622.91C76.9742 625.86 77.7442 628.82 78.5142 631.77C78.8442 633.05 79.1742 634.32 79.5042 635.6C79.9842 637.44 80.4642 639.28 80.9442 641.12C81.2342 642.22 81.5242 643.33 81.8142 644.46C82.4842 647.13 83.0342 649.82 83.5742 652.51C78.9542 652.51 74.3342 652.51 69.5742 652.51C68.6142 649.22 67.6542 645.93 66.6942 642.63C66.5642 642.18 66.5642 642.18 65.8842 639.85C64.1342 633.78 62.7042 627.72 61.5742 621.51C67.3442 620.24 72.6542 619.25 78.5742 619.51Z" fill="#B5DEF1"/>
<path d="M146.692 582.123C148.552 583.493 149.542 584.463 150.572 586.513C150.952 589.513 150.952 589.513 150.572 592.513C148.822 594.443 148.822 594.443 146.572 595.513C144.232 595.513 143.032 594.963 141.372 593.323C140.922 592.863 140.472 592.413 140.012 591.943C136.332 588.653 132.592 589.073 127.872 589.233C125.572 589.513 125.572 589.513 124.572 590.513C115.092 593.193 115.092 593.193 110.572 592.513C109.202 591.323 109.202 591.323 108.572 589.513C108.512 587.013 108.512 587.013 109.572 584.513C114.282 582.153 118.862 580.793 124.012 579.823C124.672 579.703 125.332 579.573 126.012 579.443C134.332 577.953 139.152 577.753 146.692 582.123Z" fill="#FDFDFC"/>
<path d="M82.5749 588.509C82.2149 588.759 82.2149 588.759 80.3849 590.009C76.4749 593.179 73.1949 597.399 72.1949 602.419C72.0249 608.159 73.4249 613.909 74.5749 619.509C70.1849 620.729 66.1749 621.799 61.5749 621.509C59.1549 614.419 57.4449 608.069 58.5749 600.509C60.1749 597.419 62.1649 594.999 64.5749 592.509C65.0649 591.939 65.5549 591.379 66.0649 590.799C68.2149 588.969 70.0949 589.399 72.8049 589.539C76.9549 589.469 78.3649 587.109 82.5749 588.509Z" fill="#DDD6C5"/>
<path d="M178.574 658.51C180.324 663.47 182.014 668.26 182.574 673.51C182.654 674.12 182.724 674.74 182.804 675.37C183.154 680.3 182.074 683.68 179.264 687.75C174.924 692.28 168.654 693.89 162.574 694.51C163.334 693.77 164.104 693.02 164.884 692.26C170.244 686.89 171.754 682.86 171.764 675.26C171.774 674.62 171.784 673.97 171.794 673.31C171.814 668.69 171.014 664.9 169.574 660.51C172.704 658.65 174.944 658.31 178.574 658.51Z" fill="#EAE5D9"/>
<path d="M141.574 569.51C141.904 570.17 142.234 570.83 142.574 571.51C143.584 571.74 144.594 571.96 145.634 572.2C150.744 573.6 154.284 576.39 157.574 580.51C160.474 585.81 162.574 591.45 162.574 597.51C159.604 597.84 156.634 598.17 153.574 598.51C152.034 595.43 151.344 593.81 150.764 590.63C149.204 584.26 145.714 580.99 140.194 577.63C136.064 575.47 133.184 575.02 128.574 575.51C131.194 573.37 133.434 573.14 136.764 572.89C137.214 572.85 137.214 572.85 139.494 572.66C140.184 572.61 140.864 572.56 141.574 572.51C141.574 571.52 141.574 570.53 141.574 569.51Z" fill="#EBE6DA"/>
<path d="M479.574 291.51C480.234 291.51 480.894 291.51 481.574 291.51C481.574 297.12 481.574 302.73 481.574 308.51C481.044 308.78 481.044 308.78 478.344 310.13C470.064 314.35 462.294 318.8 454.864 324.41C450.754 327.51 450.754 327.51 448.574 327.51C448.914 323.42 450.164 321.52 453.214 318.82C453.704 318.41 454.194 318 454.694 317.57C455.194 317.14 455.694 316.7 456.214 316.25C458.324 314.41 460.464 312.6 462.614 310.81C468.904 305.57 474.054 299.61 478.534 292.76C478.874 292.35 479.224 291.94 479.574 291.51Z" fill="#EEF3ED"/>
<path d="M253.574 755.51C259.224 756.41 264.834 757.5 270.454 758.57C271.424 758.76 272.394 758.95 273.404 759.14C275.794 759.59 278.184 760.05 280.574 760.51C278.414 764.23 276.054 767.74 273.514 771.2C273.334 771.44 273.334 771.44 272.444 772.67C270.914 774.76 269.414 776.67 267.574 778.51C267.304 778 267.304 778 265.964 775.4C265.254 774.04 264.534 772.68 263.824 771.32C263.474 770.65 263.124 769.98 262.774 769.28C261.144 766.2 259.544 763.33 257.304 760.65C255.574 758.51 255.574 758.51 255.574 756.51C254.914 756.18 254.254 755.85 253.574 755.51Z" fill="#F0EDEA"/>
<path d="M110.574 543.511C111.244 546.611 111.914 549.721 112.574 552.821C112.764 553.701 112.954 554.581 113.154 555.491C113.334 556.341 113.514 557.191 113.694 558.061C113.864 558.841 114.034 559.621 114.204 560.431C114.574 562.511 114.574 562.511 114.574 565.511C111.604 565.841 108.634 566.171 105.574 566.511C105.244 567.501 104.914 568.491 104.574 569.511C104.394 568.451 104.214 567.391 104.024 566.291C102.754 559.091 101.524 552.251 98.5742 545.511C102.824 543.891 105.954 543.411 110.574 543.511Z" fill="#F3EEE5"/>
<path d="M131.26 537.885C132.02 538.095 132.79 538.295 133.57 538.505C137.7 550.885 137.7 550.885 137.64 555.195C137.63 556.005 137.62 556.815 137.61 557.645C137.6 558.265 137.58 558.875 137.57 559.505C136.91 559.845 136.91 559.845 133.57 561.505C128.89 557.935 128.37 553.745 127.32 548.265C127.15 547.415 126.98 546.575 126.8 545.715C126.38 543.645 125.97 541.585 125.57 539.505C127.86 537.755 128.24 537.465 131.26 537.885Z" fill="#F9F6F1"/>
<path d="M97.5115 545.447C101.281 547.387 101.961 551.637 103.201 555.437C104.651 560.497 104.791 565.277 104.571 570.507C102.591 570.507 100.611 570.507 98.5715 570.507C97.7315 567.617 96.9015 564.717 96.0715 561.827C95.8315 561.007 95.6015 560.187 95.3515 559.347C93.0615 551.257 93.0615 551.257 93.5715 547.507C95.5715 545.507 95.5715 545.507 97.5115 545.447Z" fill="#FAF6F1"/>
<path d="M318.584 644.26C318.934 644.26 318.934 644.26 320.684 644.28C321.424 644.28 322.154 644.28 322.904 644.28C325.334 644.28 327.754 644.3 330.174 644.31C331.854 644.32 333.534 644.32 335.214 644.32C339.634 644.33 344.054 644.35 348.484 644.37C352.994 644.39 357.504 644.4 362.014 644.41C370.864 644.43 379.724 644.47 388.574 644.51C388.574 645.5 388.574 646.49 388.574 647.51C387.654 647.51 386.734 647.52 385.784 647.53C377.094 647.58 368.414 647.66 359.734 647.74C355.274 647.79 350.804 647.83 346.344 647.86C342.034 647.88 337.734 647.92 333.424 647.97C331.784 647.99 330.134 648 328.494 648.01C326.194 648.02 323.894 648.04 321.594 648.08C320.914 648.08 320.224 648.07 319.524 648.07C317.624 648.11 317.624 648.11 314.574 648.51C313.134 650.04 313.134 650.04 312.574 651.51C311.954 649.13 311.954 649.13 311.574 646.51C314.004 644.08 315.274 644.27 318.584 644.26Z" fill="#7C5F2B"/>
<path d="M629.714 566.189C631.364 566.889 632.974 567.689 634.574 568.509C634.114 568.769 633.654 569.019 633.174 569.279C631.264 570.749 630.754 571.909 629.884 574.139C629.764 574.449 629.764 574.449 629.124 576.049C628.944 576.529 628.764 577.009 628.574 577.509C626.614 577.229 624.654 576.929 622.694 576.639C622.154 576.549 622.154 576.549 619.394 576.139C616.574 575.509 616.574 575.509 614.574 573.509C614.194 571.069 614.194 571.069 614.574 568.509C618.144 564.009 624.674 564.589 629.714 566.189Z" fill="#F9816B"/>
</svg>
